<svg width="24" height="24" viewBox="0 0 24 24" fill="none" xmlns="http://www.w3.org/2000/svg">
  <path d="M12 2C13.1 2 14 2.9 14 4C14 5.1 13.1 6 12 6C10.9 6 10 5.1 10 4C10 2.9 10.9 2 12 2Z" fill="currentColor"/>
  <path d="M19 3H17C16.4 3 16 3.4 16 4V6C16 6.6 16.4 7 17 7H19C19.6 7 20 6.6 20 6V4C20 3.4 19.6 3 19 3Z" fill="currentColor"/>
  <path d="M7 3H5C4.4 3 4 3.4 4 4V6C4 6.6 4.4 7 5 7H7C7.6 7 8 6.6 8 6V4C8 3.4 7.6 3 7 3Z" fill="currentColor"/>
  <path d="M21 8H3C2.4 8 2 8.4 2 9V11C2 11.6 2.4 12 3 12H21C21.6 12 22 11.6 22 11V9C22 8.4 21.6 8 21 8Z" fill="currentColor"/>
  <path d="M20 13H4C3.4 13 3 13.4 3 14V16C3 16.6 3.4 17 4 17H20C20.6 17 21 16.6 21 16V14C21 13.4 20.6 13 20 13Z" fill="currentColor"/>
  <path d="M19 18H5C4.4 18 4 18.4 4 19V21C4 21.6 4.4 22 5 22H19C19.6 22 20 21.6 20 21V19C20 18.4 19.6 18 19 18Z" fill="currentColor"/>
</svg> 