<svg width="113" height="236" viewBox="0 0 113 236" fill="none" xmlns="http://www.w3.org/2000/svg">
<rect x="0.5" width="112" height="236" rx="24" fill="white" fill-opacity="0.4"/>
<g clip-path="url(#clip0_2_2233)">
<path fill-rule="evenodd" clip-rule="evenodd" d="M56.8963 81.5362C71.1141 81.5362 82.7181 74.3495 82.7181 65.5043C82.7181 56.6591 71.1141 49.4724 56.8963 49.4724C42.6785 49.4724 31.0745 56.6591 31.0745 65.5043C31.0745 74.3495 42.6785 81.5362 56.8963 81.5362Z" fill="#CF6030"/>
<path fill-rule="evenodd" clip-rule="evenodd" d="M56.8963 49.4299C70.7577 49.4299 82.0844 56.2339 82.7181 64.7388C82.124 73.2438 70.7973 80.0478 56.8963 80.0478C42.9953 80.0478 31.7082 73.2438 31.0745 64.7388C31.7082 56.2339 43.0349 49.4299 56.8963 49.4299Z" fill="#E47B06"/>
<path fill-rule="evenodd" clip-rule="evenodd" d="M56.8962 77.2412C71.1932 77.2412 82.8368 70.7774 82.8368 62.8252C82.8368 54.8731 71.1932 48.4093 56.8962 48.4093C42.5991 48.4093 30.9556 54.8731 30.9556 62.8252C30.9556 70.7349 42.5991 77.2412 56.8962 77.2412Z" fill="#F6D695"/>
<path fill-rule="evenodd" clip-rule="evenodd" d="M25.609 60.3588C24.1436 61.2944 24.104 62.7827 25.609 63.6758L53.4109 81.0259C54.8763 81.9615 57.2921 81.9615 58.7575 81.0259L87.3911 63.293C88.8565 62.3575 88.8961 60.8691 87.3911 59.9761L59.5892 42.6259C58.1238 41.7329 55.708 41.7329 54.2426 42.6259L25.609 60.3588Z" fill="#FEBD30"/>
<path fill-rule="evenodd" clip-rule="evenodd" d="M25.609 58.8279C24.1436 59.7635 24.104 61.2518 25.609 62.1448L53.4109 79.495C54.8763 80.4306 57.2921 80.4306 58.7575 79.495L87.3911 61.7621C88.8565 60.8266 88.8961 59.3382 87.3911 58.4452L59.5892 41.095C58.1238 40.202 55.708 40.202 54.2426 41.095L25.609 58.8279Z" fill="#FCD041"/>
<path fill-rule="evenodd" clip-rule="evenodd" d="M57.0151 46.4531C71.1141 46.4531 82.5201 53.1721 82.5201 61.4219C82.5201 62.8252 82.2032 64.101 81.6884 65.2917L65.3319 75.4126C64.8567 75.4976 64.3418 75.6677 64.223 75.7103C64.1438 75.7528 64.1042 75.7953 63.9854 75.7953C63.6686 75.7953 58.4805 76.0079 58.2824 76.2206C58.2032 76.1355 57.6488 76.2631 57.5696 76.3056H57.6092C56.7775 76.3056 53.8864 75.8378 53.2131 76.2206H53.2527C52.9359 76.2206 52.2626 76.0505 51.9854 76.093C51.3913 75.7528 49.1735 75.8378 48.5003 75.5402C48.421 75.4551 46.9161 75.1149 45.926 74.8598L33.8468 67.3329C33.728 66.8226 33.2527 66.695 32.8963 66.3973C32.025 64.9089 31.4706 63.2505 31.4706 61.4644C31.4706 53.1721 42.9161 46.4531 57.0151 46.4531Z" fill="#D69508"/>
<path fill-rule="evenodd" clip-rule="evenodd" d="M85.5297 57.2545C85.807 57.5522 85.9654 57.8499 85.807 58.105C85.6881 58.2751 85.5693 58.3602 85.4505 58.4027H85.4109C85.3713 58.4027 85.3713 58.4027 85.3317 58.4027C84.7376 58.5728 83.906 58.6153 83.1931 58.5728C83.5495 59.0406 83.9852 59.5509 84.302 59.9336C85.0545 60.8266 85.0941 61.0392 84.7773 60.9542C84.7376 61.0818 83.8664 60.9967 82.8763 60.7841C83.2723 61.1668 83.4703 61.507 83.0743 61.507C83.0347 61.5921 81.8466 61.6771 80.6188 61.6346C80.7773 61.6771 80.8961 61.7196 81.0545 61.7622C83.2327 62.3575 83.5099 62.8678 82.9159 62.9954C82.599 63.1655 80.8565 63.2505 79.906 63.0379C79.7079 64.1435 79.4307 66.0146 78.9951 66.1422C78.9555 66.1422 78.9159 66.1422 78.8763 66.1422C78.8367 66.1422 78.8367 66.0997 78.7971 66.0572C78.401 65.7595 77.9654 65.3342 77.4505 64.7814C77.3713 65.4618 77.2921 66.0572 77.0545 65.8445C76.5396 65.6319 76.1832 65.5043 75.8664 65.4193C75.7872 66.1422 75.7475 66.9502 75.3515 66.7376C71.0743 65.4618 65.0545 63.7608 61.0149 62.5276C60.104 62.2299 58.3614 61.7196 58.0842 61.1243C57.8466 60.6565 57.4505 60.2738 57.2525 59.721C57.1337 59.4233 56.8169 58.02 56.7773 58.105C58.2426 56.4465 59.7476 55.6811 61.4505 55.3409C63.4307 54.7881 65.6881 54.9582 68.7376 55.1708C73.1733 55.4685 76.1436 55.0007 80.3812 54.2778H80.5L85.5297 57.2545Z" fill="#D69508"/>
<path fill-rule="evenodd" clip-rule="evenodd" d="M28.104 57.297C27.8267 57.6372 27.5099 58.02 27.2723 58.2751C26.5198 59.1681 26.4802 59.3808 26.797 59.2957C26.8366 59.4233 27.7079 59.3382 28.698 59.1256C28.302 59.5083 28.104 59.8485 28.5 59.8485C28.5396 59.9336 29.7277 60.0186 30.9555 59.9761C30.797 60.0186 30.6782 60.0612 30.5198 60.1037C28.3416 60.699 28.0644 61.2093 28.6584 61.3369C28.9753 61.507 30.7178 61.5921 31.6683 61.3794C31.8663 62.4851 32.1436 64.3562 32.5792 64.4837C32.6188 64.4837 32.6584 64.4837 32.698 64.4837C32.7376 64.4837 32.7376 64.4412 32.7772 64.3987C33.1733 64.101 33.6089 63.6758 34.1238 63.1229C34.203 63.7608 34.2822 64.3987 34.5198 64.1861C35.0347 63.9734 35.3911 63.8459 35.7079 63.7608C35.7871 64.4837 35.8267 65.2917 36.2228 65.0791C40.5 63.8033 46.5198 62.1023 50.5594 60.8691C51.4703 60.5715 53.2129 60.0612 53.4901 59.4658C53.7277 58.998 54.1238 58.6153 54.3218 58.0625C54.4406 57.7648 54.7574 56.3615 54.797 56.4465C53.3317 54.7881 51.8267 54.0226 50.1238 53.6824C48.1436 53.1296 45.8861 53.2997 42.8366 53.5123C39.8267 53.7249 37.4901 53.5548 34.9951 53.2146L28.104 57.297Z" fill="#D69508"/>
<path fill-rule="evenodd" clip-rule="evenodd" d="M56.8959 45.9003C70.9949 45.9003 82.4008 52.6193 82.4008 60.8691C82.4008 66.5674 77.2919 70.5648 72.7375 72.606C72.3018 72.606 71.589 72.8611 71.2721 73.2013L71.3909 73.0738C71.1533 73.0738 70.8761 73.0312 70.6385 73.1588C70.4009 73.2864 70.1236 73.4565 69.9652 73.6691C69.9652 73.6691 68.9751 73.8392 68.9355 73.8392C68.4207 74.0944 67.787 73.9243 67.3117 74.4346C67.3117 74.4346 66.1632 74.7748 66.1236 74.7748C66.0048 74.6472 64.4207 75.0299 64.1434 75.1575C64.0642 75.2 64.0246 75.2425 63.9058 75.2425C63.589 75.2425 58.4009 75.4552 58.2028 75.6678C58.1236 75.5827 57.5692 75.7103 57.49 75.7528H57.5296C56.6979 75.7528 53.8068 75.2851 53.1335 75.6678H53.1731C52.8563 75.6678 52.183 75.4977 51.9058 75.5402C51.3117 75.2 49.0939 75.2851 48.4207 74.9874C48.3414 74.9023 45.49 74.2645 45.1335 74.0944C44.9355 73.8817 43.8266 73.6266 43.4306 73.4565C43.3513 73.414 43.2325 73.3289 43.1137 73.2864C41.7276 72.7761 39.589 72.1382 38.5197 71.0751C38.5197 70.9475 38.1236 70.6073 38.0048 70.5223C37.8068 70.3947 37.4504 70.3522 37.2523 70.4797C36.6187 70.012 36.0642 69.2465 35.3513 68.8213C35.2325 68.6086 35.1929 68.3535 34.9949 68.2259C34.8365 68.0558 34.4801 68.0558 34.4009 67.8857V67.9282C34.4009 67.4179 34.0048 67.2478 33.7276 66.9076L33.8464 67.0352C33.8464 66.3548 33.2919 66.2272 32.8563 65.887C31.985 64.3987 31.4306 62.7402 31.4306 60.9542C31.3909 52.6193 42.7969 45.9003 56.8959 45.9003Z" fill="#753033"/>
<path fill-rule="evenodd" clip-rule="evenodd" d="M56.8959 42.796C70.9949 42.796 82.4008 49.1323 82.4008 56.9994C82.4008 64.3987 72.183 70.5223 59.1533 71.1176C58.2028 70.7774 56.7375 71.4153 55.8266 71.0326C55.2721 70.6924 54.6385 71.4153 54.1632 70.9901C53.688 70.3097 53.0147 71.2452 52.4207 70.8625C52.1038 70.6924 51.589 70.6073 51.2325 70.7774H51.2721C50.7177 70.7774 49.4108 70.4372 48.8563 70.2246C48.381 69.6718 47.8266 70.0545 47.5494 69.8844L47.589 69.8419C47.1533 69.8419 46.4009 69.119 46.084 69.5867C45.49 69.4166 44.6979 69.4592 44.1038 69.2465C43.7474 68.6087 43.0345 69.1615 42.5989 68.6937C42.4801 68.6937 42.2028 68.4811 42.0048 68.4811C35.589 65.8871 31.4306 61.7196 31.4306 56.9568C31.3909 49.1323 42.7969 42.796 56.8959 42.796Z" fill="#883C3D"/>
<path fill-rule="evenodd" clip-rule="evenodd" d="M52.6982 53.2146C52.6586 53.1721 52.6586 53.1721 52.619 53.1296L52.5794 53.087L52.5398 53.0445C52.5002 53.002 52.4606 52.9169 52.421 52.8319C52.3022 52.6618 52.1833 52.4492 52.0645 52.194V52.1515V52.109V52.0664V52.0239V51.9814V51.9389C50.8764 50.1953 49.0546 47.3462 45.2527 47.3887C35.1933 47.5163 32.223 53.3422 31.6685 57.8924C31.6289 58.2751 31.6289 58.7003 31.7081 59.1256C31.7081 59.2106 31.7081 59.2531 31.6685 59.3382C31.1536 63.3355 36.6982 67.9282 42.0447 68.5661C48.0645 69.289 56.619 66.4824 58.2824 61.8472C58.6388 60.9116 58.6784 60.1462 58.52 59.5083C59.0744 56.404 56.1041 55.4684 54.0051 54.2777H53.9655L53.9259 54.2352H53.8863H53.8467H53.8071H53.7675L53.6883 54.1927H53.6487H53.6091L53.5299 54.1502L53.4507 54.1076H53.4111H53.3715C53.2923 54.0651 53.213 54.0226 53.1338 53.9801C53.0546 53.9375 52.9754 53.895 52.9358 53.81C52.8962 53.7674 52.8566 53.7674 52.8566 53.7249C52.817 53.6824 52.7774 53.6824 52.7774 53.6399C52.7378 53.5973 52.7378 53.5973 52.6982 53.5548C52.7378 53.2571 52.6982 53.2571 52.6982 53.2146Z" fill="#652D2D"/>
<path fill-rule="evenodd" clip-rule="evenodd" d="M57.7279 56.6591C57.7675 56.6166 57.7675 56.6166 57.8071 56.5741L57.8467 56.5316L57.8863 56.489C57.9259 56.4465 57.9655 56.3615 58.0051 56.2764C58.1239 56.1063 58.2427 55.8937 58.3615 55.6385V55.596V55.5535V55.511V55.4684V55.4259V55.3834C59.3912 53.5973 61.213 50.7907 65.015 50.8332C75.0744 50.9608 78.0447 56.7867 78.5992 61.3369C78.6388 61.7196 78.6388 62.1448 78.5596 62.5701C78.5596 62.6551 78.5596 62.6977 78.5992 62.7827C79.114 66.7801 73.5695 71.3728 68.2229 72.0106C62.2031 72.7336 53.6487 69.9269 51.9853 65.2917C51.6289 64.3561 51.5893 63.5907 51.7477 62.9528C51.1932 59.8485 54.1635 58.913 56.2625 57.7223H56.3021L56.3417 57.6797H56.3813H56.4209H56.4605H56.5002L56.5794 57.6372H56.619H56.6586L56.7378 57.5947L56.817 57.5522H56.8566H56.8962C56.9754 57.5096 57.0546 57.4671 57.1338 57.4246C57.213 57.3821 57.2922 57.3395 57.3318 57.2545C57.3714 57.212 57.411 57.212 57.411 57.1694C57.4506 57.1269 57.4903 57.1269 57.4903 57.0844C57.5299 57.0419 57.5299 57.0419 57.5695 56.9993C57.6883 56.7017 57.7279 56.6591 57.7279 56.6591Z" fill="#652D2D"/>
<path fill-rule="evenodd" clip-rule="evenodd" d="M50.7573 53.5122C49.9652 52.6617 48.381 47.6438 43.3117 47.6863C33.2523 47.8139 30.282 53.6398 29.7275 58.19C29.2127 62.1873 34.7573 66.78 40.1038 67.4179C46.1236 68.1408 54.678 65.3342 56.3414 60.6989C58.1236 55.9787 52.6186 55.4684 50.7573 53.5122Z" fill="#C4262E"/>
<path fill-rule="evenodd" clip-rule="evenodd" d="M50.7572 52.1089C49.9651 51.2584 48.3809 46.2405 43.3116 46.283C33.2522 46.4106 30.2819 52.2365 29.7275 56.7867C29.2522 60.7415 34.7572 65.3342 40.1433 65.9721C46.1631 66.695 54.7175 63.8883 56.3809 59.2531C58.1235 54.5329 52.6185 54.0651 50.7572 52.1089Z" fill="#E9311A"/>
<path fill-rule="evenodd" clip-rule="evenodd" d="M50.0048 52.4916C49.2919 51.7262 47.8662 47.1335 43.1929 47.176C34.0444 47.2611 31.3513 52.5767 30.8365 56.7441C30.4008 60.4013 35.4305 64.5687 40.3414 65.1641C45.8464 65.802 53.6483 63.2505 55.1929 59.0405C56.7375 54.7029 51.7078 54.2777 50.0048 52.4916Z" fill="#F07464"/>
<path fill-rule="evenodd" clip-rule="evenodd" d="M45.4105 52.9595C44.7769 52.0664 43.7868 51.0458 42.2422 51.0033C37.1333 50.7907 35.9056 53.895 35.8264 56.3615C35.7868 58.5302 38.7967 61.1668 41.5689 61.6771C44.6977 62.2299 49.3709 61.2943 50.0046 58.8279C50.3214 57.5096 49.2521 56.3615 48.46 55.8086C49.4897 54.8731 50.7571 53.895 52.1828 53.1296C51.6284 52.8319 51.1135 52.4917 50.7571 52.109C50.559 51.8963 50.2818 51.4286 49.965 50.7907C48.4204 51.5987 47.0739 52.4066 45.4105 52.9595Z" fill="#FFB596"/>
<path fill-rule="evenodd" clip-rule="evenodd" d="M44.9354 52.4917C46.3611 48.5794 42.8364 46.7933 37.2522 50.1953C33.371 52.5767 33.1334 54.8306 34.0839 57.9349C34.6383 59.8485 37.9651 57.9349 37.2522 56.5315C35.074 52.3641 42.6383 48.5369 42.5591 53.087C42.4799 53.9375 44.4601 53.7674 44.9354 52.4917Z" fill="#E52614"/>
<path fill-rule="evenodd" clip-rule="evenodd" d="M49.0539 56.5741C54.4004 57.3395 55.0341 60.4864 48.4202 62.6977C43.8262 64.2286 40.9747 63.3781 37.648 61.3794C35.5886 60.1462 39.3509 58.7854 40.7371 59.891C44.8163 63.1654 52.8163 59.8485 47.2321 57.8923C46.242 57.5521 47.3113 56.3189 49.0539 56.5741Z" fill="#E52614"/>
<path fill-rule="evenodd" clip-rule="evenodd" d="M61.1735 58.4451C61.9656 57.5946 63.5497 52.5767 68.619 52.6192C78.6784 52.7468 81.6487 58.5727 82.2032 63.1229C82.718 67.1202 77.1735 71.7129 71.8269 72.3508C65.8071 73.0737 57.2527 70.2671 55.5893 65.6319C53.8071 60.8691 59.3121 60.4013 61.1735 58.4451Z" fill="#C4262E"/>
<path fill-rule="evenodd" clip-rule="evenodd" d="M61.1735 56.9993C61.9656 56.1488 63.5497 51.1309 68.619 51.1734C78.6784 51.301 81.6487 57.1269 82.2032 61.677C82.718 65.6744 77.1735 70.2671 71.8269 70.905C65.8071 71.6279 57.2527 68.8212 55.5893 64.186C53.8071 59.4232 59.3121 58.9555 61.1735 56.9993Z" fill="#E9311A"/>
<path fill-rule="evenodd" clip-rule="evenodd" d="M61.9262 57.382C62.6391 56.6166 64.0648 52.0239 68.7381 52.0664C77.9262 52.1515 80.6193 57.4671 81.1341 61.6345C81.5698 65.2917 76.5401 69.4591 71.6292 70.0544C66.1242 70.6923 58.3222 68.1408 56.7777 63.9309C55.1935 59.5933 60.2232 59.1681 61.9262 57.382Z" fill="#F07464"/>
<path fill-rule="evenodd" clip-rule="evenodd" d="M66.5198 57.8498C67.1535 56.9568 68.1436 55.9362 69.6882 55.8937C74.7971 55.6811 76.0248 58.7854 76.104 61.2518C76.1436 63.4206 73.1337 66.0571 70.3614 66.5674C67.2327 67.1203 62.5594 66.1847 61.9258 63.7183C61.6089 62.4 62.6783 61.2518 63.4703 60.699C62.4406 59.7635 61.1733 58.7854 59.7476 58.0199C60.302 57.7223 60.8169 57.3821 61.1733 56.9993C61.3713 56.7867 61.6089 56.3189 61.9654 55.6811C63.5495 56.489 64.8565 57.297 66.5198 57.8498Z" fill="#FFB596"/>
<path fill-rule="evenodd" clip-rule="evenodd" d="M67.035 57.4246C65.6092 53.5123 69.134 51.7262 74.7181 55.1282C78.5993 57.5096 78.8369 59.7635 77.8864 62.8678C77.332 64.7814 74.0053 62.8678 74.7181 61.4645C76.8963 57.297 69.332 53.4698 69.4112 58.0199C69.4508 58.8279 67.4706 58.7003 67.035 57.4246Z" fill="#E52614"/>
<path fill-rule="evenodd" clip-rule="evenodd" d="M62.8763 61.4644C57.5297 62.2299 56.8961 65.3767 63.5099 67.588C68.104 69.1189 70.9555 68.2684 74.2822 66.2698C76.3416 65.0365 72.5792 63.6757 71.1931 64.7814C67.1139 68.0558 59.1139 64.7389 64.698 62.7827C65.6881 62.4425 64.6188 61.2093 62.8763 61.4644Z" fill="#E52614"/>
<path fill-rule="evenodd" clip-rule="evenodd" d="M62.0443 55.1282C64.1829 55.1282 65.9651 54.1502 65.9651 52.9595C65.9651 51.7688 64.2225 50.7907 62.0443 50.7907C59.9057 50.7907 58.1235 51.7688 58.1235 52.9595C58.1235 54.1502 59.9057 55.1282 62.0443 55.1282Z" fill="#ED1C24"/>
<path fill-rule="evenodd" clip-rule="evenodd" d="M26.5596 47.5588C29.8467 47.1336 32.5398 47.1761 29.2527 47.3036C28.3418 47.3462 25.7675 51.0884 26.6784 51.386C27.7477 51.7262 29.4903 51.4286 30.1239 50.8757C33.3715 47.899 29.7279 51.9814 28.8962 53.6399C28.421 54.5754 27.6685 54.8306 27.7081 55.0432C27.9061 55.511 32.7378 53.2997 33.3715 52.4492C34.718 50.6206 33.6091 51.386 31.4705 53.5123C30.7576 54.1927 29.4507 55.2558 29.6091 55.6385C29.6883 55.8937 33.4903 55.511 34.6388 54.8306C37.4903 53.087 35.7477 54.2777 32.619 55.8937C30.7972 56.8292 29.6883 57.5947 30.0051 57.8073C30.52 58.1475 34.5596 57.6797 33.6883 56.5316C33.4903 56.2339 34.3616 62.4 34.8368 61.8046C35.4705 60.9541 36.1833 59.7209 37.0546 57.8924C37.8467 58.0199 36.2626 61.4644 36.7378 61.1243C40.8962 58.0625 37.6487 62.7402 38.6784 62.1874C43.0744 59.7209 49.3319 56.404 53.4507 54.0651C54.4012 53.5123 56.1437 52.4917 56.3814 51.5987C56.5794 50.9183 56.8962 50.2379 57.015 49.4299C57.0942 48.9621 57.213 46.8784 57.2923 46.9635C53.4903 42.4133 50.322 43.2213 44.6982 44.412C39.9457 45.4326 36.6982 45.1349 32.0249 44.7096C29.2923 44.4545 26.1239 44.6671 26.5596 47.5588Z" fill="#699B42"/>
<path fill-rule="evenodd" clip-rule="evenodd" d="M26.5595 47.5588C27.3516 44.5395 29.7675 45.6877 28.4605 47.1761C27.8665 47.814 25.5298 49.9402 26.2031 50.9608C26.5991 51.5562 26.9952 51.5987 27.5892 51.0459C30.8368 48.0691 28.8962 51.8113 28.0645 53.5123C26.4407 56.8292 28.7774 54.0651 29.6486 52.8744C30.9952 51.0459 32.817 51.216 30.6784 53.3422C29.5298 54.4904 28.2625 56.7017 31.114 54.9582C33.9655 53.2146 34.9556 54.1077 31.8269 55.7236C27.6288 57.8924 30.4407 58.7429 32.8962 56.3615C33.1338 56.1063 34.5595 64.6964 35.1536 60.7841C35.312 59.7209 33.9259 57.5522 35.4308 57.8498C36.2229 57.9774 36.4209 63.1655 36.9754 60.4013C37.9259 55.7236 37.8863 63.0804 38.718 62.1874C41.6486 58.998 48.5397 56.2764 52.6585 53.895C53.609 53.3422 55.3516 52.3216 55.5892 51.4286C55.7873 50.7482 56.1041 50.0678 56.2229 49.2598C56.3021 48.792 56.4209 46.7083 56.5001 46.7934C52.6982 42.2432 49.5298 43.0512 43.9061 44.2419C39.1536 45.2625 35.9061 44.9648 31.2328 44.5395C28.5001 44.3269 26.1239 44.6671 26.5595 47.5588Z" fill="#99CC33"/>
<path fill-rule="evenodd" clip-rule="evenodd" d="M28.8961 45.305C32.6188 44.7947 34.7575 45.6878 37.2129 45.9429C38.1238 46.0279 39.1535 45.8153 40.0248 45.8579C40.6584 45.9004 41.4901 45.6452 40.302 45.9429C36.9357 46.7509 33.8466 46.028 30.6783 46.6658C29.3713 46.921 28.0248 48.707 28.5792 47.7289C28.8169 47.0911 29.5297 45.6027 28.8961 45.305Z" fill="#D1DB39"/>
<path fill-rule="evenodd" clip-rule="evenodd" d="M29.6093 49.7701C31.1142 48.9622 32.6984 48.8346 33.7677 48.5794C35.9063 48.0691 38.0845 47.5163 40.1835 46.8784C42.5994 46.113 38.1637 47.6864 37.6093 47.899C35.5499 48.6645 34.4014 49.0047 32.342 49.9402C31.9459 50.1103 30.0449 51.216 29.7677 51.301C29.5301 50.8333 30.0449 50.0678 29.6093 49.7701Z" fill="#D1DB39"/>
<path fill-rule="evenodd" clip-rule="evenodd" d="M31.7874 51.4711C33.3716 50.7057 34.9161 50.4931 35.9458 50.1529C36.4211 50.0253 36.8567 49.7701 37.332 49.6C37.7676 49.4299 38.2429 49.2598 37.4904 49.6851C36.2627 50.3655 34.9954 51.1309 33.8072 51.8113L31.4706 53.0871C31.3122 53.1721 32.3023 51.8538 31.7874 51.4711Z" fill="#D1DB39"/>
<path fill-rule="evenodd" clip-rule="evenodd" d="M35.0349 57.6372C35.7082 57.0844 36.5003 56.7442 37.1735 56.1914L42.0448 52.3216L43.629 51.0884L42.7181 51.9814L36.5795 57.6372C35.3517 58.7854 36.3814 57.4246 35.0349 57.6372Z" fill="#D1DB39"/>
<path fill-rule="evenodd" clip-rule="evenodd" d="M37.6882 58.5303C38.2426 58.1901 39.3119 57.7223 39.7476 57.297C40.6981 56.404 41.6486 55.8087 42.7971 55.0007C44.5 53.8525 40.8565 56.8718 40.3416 57.4671C39.906 57.9774 39.4703 58.8279 39.1139 59.4233C38.6783 60.2738 38.5991 60.2738 38.3218 59.3807C38.2822 59.0831 37.4505 58.5303 37.6882 58.5303Z" fill="#D1DB39"/>
<path fill-rule="evenodd" clip-rule="evenodd" d="M33.1336 56.2764C34.2425 55.2558 35.9851 54.9581 36.9356 53.8525C37.5693 53.1296 38.7178 52.8744 39.4702 52.5342C40.2227 52.194 38.8762 53.0871 38.7574 53.2146C37.3712 54.1927 35.8267 55.8086 34.6386 57.0419C34.2821 57.4246 34.1237 57.8924 33.8465 56.9568C33.7673 56.6591 33.094 56.2764 33.1336 56.2764Z" fill="#D1DB39"/>
<path fill-rule="evenodd" clip-rule="evenodd" d="M86.2823 46.5807C83.2328 46.5807 80.7774 46.9209 83.7873 46.6658C84.6189 46.6232 87.3516 49.685 86.5199 50.0252C85.5694 50.4505 83.9457 50.3654 83.312 49.9402C80.0249 47.6438 83.7873 50.8757 84.7378 52.2791C85.2526 53.0445 86.0051 53.2146 85.9655 53.3847C85.8467 53.8099 81.1734 52.3641 80.5001 51.6837C79.0744 50.1953 80.1833 50.7482 82.3615 52.4066C83.0744 52.9595 84.3813 53.7674 84.2625 54.1076C84.1833 54.3202 80.6982 54.4478 79.5892 53.9375C76.817 52.7043 78.5199 53.5973 81.5298 54.6604C83.312 55.2983 84.3813 55.8511 84.1041 56.0638C83.6684 56.4465 79.9457 56.4465 80.6189 55.3408C80.7774 55.0432 80.6189 60.699 80.1041 60.1887C79.4308 59.5083 78.6783 58.4452 77.6882 56.9568C76.9754 57.1694 78.7576 60.1036 78.3219 59.8485C74.2427 57.5947 77.6486 61.4219 76.6585 60.9967C72.3813 59.2957 66.3615 57.0418 62.3219 55.3834C61.411 55.0006 59.6684 54.2777 59.3912 53.5123C59.1536 52.9169 58.7576 52.3641 58.5595 51.6412C58.4407 51.2159 58.1239 49.3874 58.0843 49.4724C61.0942 44.9648 64.1041 45.305 69.3318 45.7727C73.7675 46.1555 76.7378 45.5176 80.9754 44.6246C83.4704 44.1568 86.3615 43.9867 86.2823 46.5807Z" fill="#699B42"/>
<path fill-rule="evenodd" clip-rule="evenodd" d="M86.2822 46.5807C85.2525 43.9867 83.1535 45.2625 84.5 46.4532C85.0941 46.9635 87.4703 48.6219 86.9159 49.6C86.599 50.1953 86.2426 50.2804 85.6485 49.8126C82.3614 47.5163 84.5396 50.6631 85.4505 52.0664C87.2723 54.8731 84.8565 52.6618 83.9456 51.6837C82.5198 50.1953 80.8961 50.5355 83.0743 52.194C84.2624 53.087 85.6089 54.9581 82.8367 53.6824C80.0644 52.4492 79.2327 53.3422 82.2426 54.4478C86.2822 55.8937 83.8268 56.9993 81.3317 55.1708C81.0941 55.0007 80.6188 62.8252 79.7079 59.3807C79.4703 58.4452 80.5 56.3615 79.1535 56.7442C78.4406 56.9568 78.7971 61.6346 78.005 59.2106C76.6584 55.1282 77.4505 61.7196 76.5792 60.9967C73.5693 58.4452 66.9951 56.8292 62.9951 55.1708C62.0842 54.788 60.3416 54.0651 60.0644 53.2997C59.8268 52.7043 59.4307 52.1515 59.2327 51.4286C59.1139 51.0033 58.7971 49.1748 58.7574 49.2598C61.7673 44.7522 64.7772 45.0924 70.005 45.5601C74.4406 45.9429 77.4109 45.305 81.6485 44.412C84.1832 43.9017 86.3614 43.9867 86.2822 46.5807Z" fill="#99CC33"/>
<path fill-rule="evenodd" clip-rule="evenodd" d="M83.9063 44.8372C80.4607 44.7947 78.5993 45.8578 76.3419 46.3256C75.5102 46.4957 74.5597 46.4106 73.7677 46.5807C73.1736 46.6658 72.3815 46.5807 73.53 46.7083C76.6984 47.0485 79.431 46.0704 82.4409 46.2405C83.6687 46.3256 85.0548 47.7714 84.4607 46.9209C84.1439 46.4532 83.3518 45.1774 83.9063 44.8372Z" fill="#D1DB39"/>
<path fill-rule="evenodd" clip-rule="evenodd" d="M83.7078 48.9196C82.2425 48.3668 80.7771 48.4518 79.7474 48.3242C77.7276 48.1116 75.7078 47.8565 73.688 47.5163C71.391 47.1335 75.6286 48.0266 76.1435 48.1116C78.1237 48.5794 79.2326 48.7495 81.1732 49.3448C81.5692 49.4724 83.391 50.2378 83.6682 50.2804C83.8662 49.8551 83.3118 49.2173 83.7078 48.9196Z" fill="#D1DB39"/>
<path fill-rule="evenodd" clip-rule="evenodd" d="M81.8466 50.7057C80.3417 50.1954 78.8763 50.1529 77.8862 50.0253C77.4506 49.9402 77.0149 49.7701 76.5397 49.6851C76.104 49.6 75.6684 49.515 76.3813 49.7701C77.609 50.2379 78.7971 50.7907 79.9852 51.2585L82.2427 52.109C82.4803 52.194 81.4506 51.0884 81.8466 50.7057Z" fill="#D1DB39"/>
<path fill-rule="evenodd" clip-rule="evenodd" d="M79.51 56.6166C78.8368 56.1914 78.0843 55.9787 77.411 55.5535L72.5397 52.6193L70.9556 51.6837L71.9061 52.3641L78.0843 56.7442C79.3516 57.6797 78.2427 56.5316 79.51 56.6166Z" fill="#D1DB39"/>
<path fill-rule="evenodd" clip-rule="evenodd" d="M77.1733 57.7223C76.6188 57.4671 75.6287 57.1695 75.1534 56.8293C74.1633 56.1489 73.2921 55.6811 72.1435 55.1283C70.4802 54.3203 74.1237 56.5741 74.6386 57.0419C75.1138 57.4671 75.5891 58.1475 75.9455 58.6578C76.4604 59.3808 76.5 59.3382 76.6584 58.5303C76.698 58.2751 77.4109 57.6798 77.1733 57.7223Z" fill="#D1DB39"/>
<path fill-rule="evenodd" clip-rule="evenodd" d="M81.0943 55.1707C79.9854 54.3628 78.322 54.3202 77.3715 53.4272C76.7379 52.8319 75.629 52.7468 74.9161 52.5342C74.1636 52.279 75.5101 52.9594 75.629 53.0445C77.0151 53.7674 78.5993 55.0432 79.7874 55.9787C80.1834 56.2764 80.3418 56.6591 80.5003 55.8086C80.5795 55.596 81.1735 55.1707 81.0943 55.1707Z" fill="#D1DB39"/>
<path fill-rule="evenodd" clip-rule="evenodd" d="M68.7771 64.9515C67.6682 62.3575 66.2821 60.4439 67.7078 62.9103C68.1039 63.5907 64.9355 67.2479 64.1435 66.7376C63.193 66.0997 62.6781 64.7389 63.0346 64.016C64.9751 60.1887 61.9652 64.8239 60.3811 66.2698C59.5098 67.0352 59.5494 67.7582 59.3118 67.8007C58.6781 67.8857 58.9157 63.293 59.589 62.4425C61.094 60.5714 60.7375 61.7621 59.2722 64.3136C58.7969 65.1641 58.1633 66.61 57.688 66.695C57.3316 66.7376 55.9058 63.8459 56.1435 62.6977C56.8167 59.806 56.2227 61.6346 55.8662 64.6964C55.6682 66.4824 55.2722 67.6306 54.8761 67.503C54.2029 67.2904 52.7771 64.1435 54.5593 64.2286C54.9949 64.2286 47.2326 66.61 47.7474 65.9721C48.4207 65.1216 49.5692 63.9734 51.2722 62.4425C50.7177 61.9322 47.391 64.7389 47.589 64.2711C49.1732 59.806 45.2128 64.4412 45.3712 63.3781C46.1237 58.998 46.9553 52.917 47.7078 48.792C47.8662 47.8565 48.2227 46.0704 49.1732 45.4751C49.9256 45.0073 50.5197 44.4545 51.4306 43.9442C51.9454 43.6465 54.3217 42.5409 54.2029 42.5409C61.49 43.0512 62.1237 45.7302 63.4702 50.3655C64.6187 54.2778 66.5593 56.4891 69.4108 59.6359C71.0346 61.507 72.3811 63.8884 68.7771 64.9515Z" fill="#699B42"/>
<path fill-rule="evenodd" clip-rule="evenodd" d="M68.7773 64.9515C71.9456 62.9103 69.4109 61.7621 68.302 63.4206C67.8268 64.1435 66.4406 66.8651 64.8961 66.8651C63.9852 66.8651 63.7476 66.61 64.104 65.8871C66.0446 62.0598 62.5198 65.3342 60.9753 66.7376C57.8466 69.5442 59.9456 66.4824 60.9357 65.2917C62.4406 63.4206 61.3713 62.1874 59.906 64.7814C59.1139 66.1847 57.0941 68.1409 57.7674 65.2492C58.4406 62.3575 56.8565 62.0598 56.5 65.1216C55.9852 69.204 53.5693 67.5881 55.1931 64.6538C55.3515 64.3562 44.4604 67.503 48.8169 65.1641C50.005 64.5263 53.2525 64.4837 52.1832 63.5482C51.6287 63.0379 45.3713 65.4618 48.3812 63.6758C53.4901 60.7415 44.7377 64.3562 45.4109 63.293C47.7476 59.5934 47.5495 53.3422 48.3416 49.2173C48.5 48.2817 48.8565 46.4957 49.807 45.9003C50.5594 45.4326 51.1535 44.8797 52.0644 44.3694C52.5792 44.0718 54.9555 42.9661 54.8367 42.9661C62.1238 43.4764 62.7575 46.1555 64.104 50.7907C65.2525 54.703 67.1931 56.9143 70.0446 60.0611C71.6287 62.0173 72.3812 63.8884 68.7773 64.9515Z" fill="#99CC33"/>
<path fill-rule="evenodd" clip-rule="evenodd" d="M70.2822 62.1874C69.0544 59.2532 66.9158 58.1475 65.4109 56.489C64.8564 55.8937 64.6188 55.0432 64.1435 54.4479C63.7871 54.0226 63.6287 53.2997 63.9059 54.3203C64.6188 57.1694 66.995 58.998 67.8663 61.592C68.2228 62.6552 66.7574 64.4837 67.6683 63.6332C68.1436 63.0804 69.6089 61.8897 70.2822 62.1874Z" fill="#D1DB39"/>
<path fill-rule="evenodd" clip-rule="evenodd" d="M64.6185 63.8033C64.8561 62.3149 64.1828 61.1242 63.9452 60.2312C63.4699 58.4452 63.0343 56.6166 62.7967 54.788C62.4798 52.7043 62.8363 56.6591 62.8759 57.1269C62.9551 59.0405 63.1531 60.0186 63.0739 61.9322C63.0739 62.3149 62.6779 64.2286 62.7571 64.4412C63.3907 64.3987 64.064 63.6757 64.6185 63.8033Z" fill="#D1DB39"/>
<path fill-rule="evenodd" clip-rule="evenodd" d="M61.4903 63.0804C61.6091 61.592 61.1338 60.3588 60.9754 59.4232C60.8962 58.998 60.9754 58.5727 60.9358 58.1475C60.8962 57.7648 60.8566 57.3395 60.7378 58.0624C60.5398 59.2957 60.2229 60.5714 60.0645 61.7621L59.7477 64.0585C59.7081 64.2711 60.7774 62.9103 61.4903 63.0804Z" fill="#D1DB39"/>
<path fill-rule="evenodd" clip-rule="evenodd" d="M52.5393 63.7608C52.8561 62.9953 52.8957 62.2724 53.2126 61.507L55.3908 56.1063L56.0641 54.3628L55.47 55.4684L51.7868 62.6126C50.9948 64.101 52.1433 62.6551 52.5393 63.7608Z" fill="#D1DB39"/>
<path fill-rule="evenodd" clip-rule="evenodd" d="M50.1635 62.2724C50.2823 61.7196 50.3219 60.7415 50.5991 60.1887C51.1932 59.0405 51.4704 58.105 51.7872 56.8718C52.3021 55.0857 50.5199 59.1681 50.0843 59.806C49.6882 60.3588 48.8962 61.1243 48.3417 61.6346C47.5496 62.3575 47.5892 62.4425 48.7773 62.1874C49.213 62.1023 50.3219 62.4425 50.1635 62.2724Z" fill="#D1DB39"/>
<path fill-rule="evenodd" clip-rule="evenodd" d="M55.1136 64.4412C55.7869 63.1229 55.2324 61.7622 56.1037 60.5289C56.6582 59.721 56.3809 58.7854 56.4205 58.0625C56.4601 57.3396 56.0245 58.7429 55.9849 58.913C55.5097 60.4014 54.3611 62.315 53.4898 63.7183C53.2126 64.1861 52.7374 64.4837 54.0047 64.2286C54.3215 64.1861 55.1532 64.4837 55.1136 64.4412Z" fill="#D1DB39"/>
<path fill-rule="evenodd" clip-rule="evenodd" d="M30.8761 45.9429C30.7969 46.8359 30.2425 47.814 30.2425 48.6645C30.2425 49.1748 31.391 48.707 31.9058 48.707C32.3415 48.707 31.7078 51.0884 32.1435 51.0459C32.8959 50.9608 33.4108 51.1309 33.49 51.9814C33.7276 54.9156 34.4801 54.2778 36.0643 54.5754C36.4999 54.6605 36.4207 56.4891 37.1732 56.1914C38.7573 55.596 38.4009 58.1901 38.7177 57.9349C42.4801 55.1708 40.7375 60.614 42.9157 59.3808C44.1831 58.6578 45.7672 58.4452 46.8761 57.4671C48.1039 56.404 43.3514 50.1954 42.6385 49.1323C41.292 47.1336 37.0543 42.3708 34.7177 42.3708C33.49 42.3708 31.9058 44.2419 30.1237 44.497C31.0742 45.1349 30.8761 45.9429 30.8761 45.9429Z" fill="#699B42"/>
<path fill-rule="evenodd" clip-rule="evenodd" d="M46.322 60.1462C47.1933 60.3163 48.1042 59.8485 48.8566 60.1887C49.2923 60.3588 49.8467 60.0611 50.2824 60.0611C51.1141 60.0611 49.8863 61.7196 50.916 61.3794C51.5497 61.1668 52.5794 60.3588 53.0943 59.9761C53.6091 59.5508 52.8962 59.5933 53.5299 59.9761C53.7675 60.1462 52.9754 61.3369 52.9754 61.6771C52.9754 62.0598 53.9259 61.2518 54.0448 61.1668C54.3616 60.9541 54.916 60.5714 55.2725 60.4864C55.8665 60.4438 55.6685 60.3163 55.6685 60.9541C55.6685 61.1242 55.3517 62.0598 55.4705 62.1874C55.5893 62.3149 56.421 61.507 56.5002 61.3794C56.8566 60.9541 57.2923 60.3588 57.7675 60.8691C58.0448 61.1668 58.322 62.0173 58.4012 62.4C59.3913 61.8046 60.223 60.9116 61.015 60.4864C61.4507 60.2737 61.2923 60.8691 61.2923 61.1668C61.2923 61.4644 61.5299 61.8472 61.4111 61.9322C61.8863 61.592 61.8071 61.8046 62.124 61.3369C62.3616 60.9967 63.2329 59.6359 63.6685 59.891C64.1834 60.1887 64.025 61.507 64.3814 61.9747C64.6982 62.5701 65.6091 60.699 65.8071 60.4438C66.2824 59.8485 66.8764 58.9129 67.7477 58.9129C68.3022 58.9129 68.223 59.1681 68.5794 59.3382C70.6388 60.2312 66.916 56.8292 67.1141 56.7442C66.2428 54.5329 67.1933 53.6398 65.0547 52.7043C60.7774 50.8757 52.421 51.8538 48.2626 53.98C46.322 55.0432 46.2824 57.8498 46.322 60.1462Z" fill="#699B42"/>
<path fill-rule="evenodd" clip-rule="evenodd" d="M82.9552 44.2419C82.678 44.9223 82.2028 45.7728 82.9156 46.6233C83.1928 46.9635 83.5493 47.4738 83.7869 47.899C84.1037 48.4944 84.1433 48.707 83.7077 48.9196C83.5097 48.792 83.5493 48.7495 83.2721 48.707C82.9156 48.707 80.8958 48.1542 81.8463 49.6425C82.0443 49.9402 82.0839 49.9827 82.0839 50.3655C81.5691 51.0459 82.1235 50.5781 81.8067 50.5781C81.5691 50.5781 81.2126 50.408 80.8958 50.408C80.579 50.408 80.2226 50.2379 79.9057 50.2804C79.6285 50.6631 79.1136 51.216 79.5097 51.8538C79.5889 51.9814 80.2622 52.2366 80.183 52.4067C80.0641 52.6618 78.0839 52.5342 78.7176 53.1296C79.1136 53.5123 79.7869 53.81 79.6285 54.5329L79.4305 54.4904C75.7473 53.3422 79.3117 56.6166 77.4503 55.511C76.8562 55.1708 75.7473 54.6605 75.8661 55.7236C76.0641 57.8924 76.381 57.4671 74.282 56.3615C73.2523 55.8087 74.0443 58.02 73.3315 58.5303C72.381 59.2532 67.3909 58.1901 68.3018 56.7017C70.2424 53.5123 73.8859 50.7482 76.7374 48.5369C78.2424 47.3887 79.7077 45.5601 81.1334 44.6671C81.5295 44.6246 81.8067 44.412 82.0839 44.3269C82.4008 44.1568 82.678 44.1143 82.9552 44.2419Z" fill="#699B42"/>
<path fill-rule="evenodd" clip-rule="evenodd" d="M56.8963 24C74.9953 24 82.7181 36.6724 83.3121 45.0924C82.6785 53.5123 71.0745 60.2312 56.8963 60.2312C42.6785 60.2312 31.0745 53.5123 30.4804 45.0924C31.0745 36.6724 38.7973 24 56.8963 24Z" fill="#CF6030"/>
<path fill-rule="evenodd" clip-rule="evenodd" d="M58.1242 24.3402C71.1539 24.1701 81.2134 35.0139 81.7678 41.988C81.2134 48.9621 70.8371 54.5329 58.1242 54.5329C45.4114 54.5329 35.0351 48.9621 34.4807 41.988C35.0351 34.9714 45.0945 24.5103 58.1242 24.3402Z" fill="#FC9E14"/>
<path fill-rule="evenodd" clip-rule="evenodd" d="M60.4209 25.6585C66.9555 25.6159 71.9853 29.3156 72.2625 31.7395C71.9853 34.1209 66.7971 36.0345 60.4209 36.0345C54.0447 36.0345 48.8565 34.1209 48.5793 31.7395C48.8961 29.3581 53.9258 25.7435 60.4209 25.6585Z" fill="#FEBD30"/>
<path fill-rule="evenodd" clip-rule="evenodd" d="M45.6488 44.0718C46.4804 44.0718 47.1537 43.6465 47.1537 43.1787C47.1537 42.6684 46.4804 42.2857 45.6488 42.2857C44.8171 42.2857 44.1438 42.711 44.1438 43.1787C44.1438 43.689 44.8171 44.0718 45.6488 44.0718Z" fill="#E47B06"/>
<path fill-rule="evenodd" clip-rule="evenodd" d="M45.9657 43.604C46.7974 43.604 47.4707 43.1787 47.4707 42.711C47.4707 42.2007 46.7974 41.8179 45.9657 41.8179C45.134 41.8179 44.4608 42.2432 44.4608 42.711C44.4608 43.1787 45.134 43.604 45.9657 43.604Z" fill="#F8DAB0"/>
<path d="M55.7102 39.1414C55.8843 38.685 55.4019 38.0408 54.6328 37.7025C53.8636 37.3643 53.099 37.4601 52.9249 37.9165C52.7508 38.3729 53.2332 39.0171 54.0024 39.3553C54.7715 39.6936 55.5362 39.5978 55.7102 39.1414Z" fill="#E47B06"/>
<path d="M56.1904 38.838C56.3645 38.3816 55.8821 37.7374 55.1129 37.3991C54.3438 37.0609 53.5791 37.1567 53.4051 37.6131C53.231 38.0695 53.7134 38.7137 54.4825 39.0519C55.2517 39.3902 56.0163 39.2944 56.1904 38.838Z" fill="#F8DAB0"/>
<path d="M64.6773 43.2278C64.5082 42.7692 63.7446 42.6638 62.9718 42.9923C62.199 43.3208 61.7096 43.9589 61.8787 44.4175C62.0478 44.8761 62.8113 44.9815 63.5841 44.653C64.3569 44.3245 64.8464 43.6864 64.6773 43.2278Z" fill="#E47B06"/>
<path d="M64.8135 42.691C64.6444 42.2325 63.8809 42.127 63.1081 42.4555C62.3352 42.7841 61.8458 43.4221 62.0149 43.8807C62.184 44.3393 62.9475 44.4447 63.7203 44.1162C64.4932 43.7877 64.9826 43.1496 64.8135 42.691Z" fill="#F8DAB0"/>
<path d="M71.3392 36.4016C71.4112 35.9145 70.8041 35.4063 69.9832 35.2665C69.1624 35.1266 68.4386 35.4081 68.3666 35.8952C68.2946 36.3823 68.9017 36.8905 69.7226 37.0304C70.5434 37.1702 71.2672 36.8887 71.3392 36.4016Z" fill="#E47B06"/>
<path d="M71.7235 35.9871C71.7955 35.5 71.1884 34.9918 70.3676 34.852C69.5467 34.7121 68.8229 34.9936 68.751 35.4807C68.679 35.9678 69.2861 36.476 70.1069 36.6159C70.9278 36.7557 71.6516 36.4742 71.7235 35.9871Z" fill="#F8DAB0"/>
<path d="M47.7161 31.0569C47.5112 30.6155 46.7421 30.5803 45.9982 30.9783C45.2543 31.3764 44.8173 32.0569 45.0222 32.4983C45.2271 32.9397 45.9962 32.9749 46.7401 32.5768C47.4839 32.1788 47.9209 31.4983 47.7161 31.0569Z" fill="#E47B06"/>
<path d="M47.8309 30.4398C47.626 29.9983 46.8569 29.9631 46.1129 30.3612C45.3689 30.7592 44.9319 31.4398 45.1367 31.8812C45.3416 32.3227 46.1108 32.3579 46.8547 31.9598C47.5987 31.5618 48.0358 30.8813 47.8309 30.4398Z" fill="#F8DAB0"/>
<path d="M62.7707 36.0975C63.1402 35.6648 62.8648 34.7479 62.1555 34.0495C61.4462 33.3511 60.5716 33.1358 60.2021 33.5685C59.8326 34.0013 60.108 34.9182 60.8173 35.6165C61.5266 36.3149 62.4011 36.5302 62.7707 36.0975Z" fill="#E47B06"/>
<path d="M63.4061 35.9678C63.7757 35.5351 63.5003 34.6181 62.7911 33.9196C62.0818 33.2212 61.2072 33.0057 60.8376 33.4385C60.468 33.8712 60.7434 34.7882 61.4526 35.4867C62.1619 36.1851 63.0365 36.4005 63.4061 35.9678Z" fill="#F8DAB0"/>
<path fill-rule="evenodd" clip-rule="evenodd" d="M75.0744 30.8891C75.8269 31.2293 76.2625 31.8246 76.0645 32.2073C75.8665 32.59 75.114 32.6751 74.3616 32.3349C73.6091 31.9947 73.1734 31.3993 73.3715 31.0166C73.5695 30.6339 74.322 30.5914 75.0744 30.8891Z" fill="#E47B06"/>
<path fill-rule="evenodd" clip-rule="evenodd" d="M75.5496 30.6764C76.302 31.0166 76.7377 31.612 76.5396 31.9947C76.3416 32.3774 75.5892 32.4625 74.8367 32.1223C74.0842 31.7821 73.6486 31.1867 73.8466 30.804C74.0446 30.3788 74.8367 30.3362 75.5496 30.6764Z" fill="#F8DAB0"/>
<path fill-rule="evenodd" clip-rule="evenodd" d="M38.2826 34.8013C39.0351 35.1415 39.4707 35.7369 39.2727 36.1196C39.0747 36.5023 38.3222 36.5874 37.5697 36.2472C36.8172 35.907 36.3816 35.3116 36.5796 34.9289C36.7776 34.5462 37.5301 34.4611 38.2826 34.8013Z" fill="#E47B06"/>
<path fill-rule="evenodd" clip-rule="evenodd" d="M38.7975 34.5462C39.55 34.8864 39.9857 35.4817 39.7876 35.8645C39.5896 36.2472 38.8371 36.3322 38.0847 35.992C37.3322 35.6518 36.8966 35.0565 37.0946 34.6738C37.253 34.291 38.0451 34.206 38.7975 34.5462Z" fill="#F8DAB0"/>
<path d="M54.7761 25.6198C54.4216 25.3062 53.7058 25.6104 53.1773 26.2992C52.6489 26.988 52.5079 27.8006 52.8624 28.1142C53.2169 28.4278 53.9327 28.1236 54.4611 27.4348C54.9896 26.746 55.1306 25.9334 54.7761 25.6198Z" fill="#E47B06"/>
<path d="M54.6809 25.0453C54.3264 24.7317 53.6106 25.0359 53.0822 25.7247C52.5537 26.4135 52.4127 27.2261 52.7672 27.5396C53.1217 27.8532 53.8375 27.549 54.366 26.8602C54.8944 26.1714 55.0354 25.3588 54.6809 25.0453Z" fill="#F8DAB0"/>
<path d="M66.6334 26.6267C66.7054 26.1397 66.0984 25.6313 65.2775 25.4914C64.4566 25.3515 63.7328 25.6329 63.6608 26.12C63.5888 26.6071 64.1958 27.1154 65.0167 27.2553C65.8375 27.3952 66.5614 27.1138 66.6334 26.6267Z" fill="#E47B06"/>
<path d="M67.0186 26.2122C67.0907 25.7251 66.4836 25.2168 65.6628 25.0769C64.8419 24.9369 64.1181 25.2183 64.0461 25.7054C63.974 26.1925 64.5811 26.7008 65.4019 26.8408C66.2228 26.9807 66.9466 26.6993 67.0186 26.2122Z" fill="#F8DAB0"/>
<path fill-rule="evenodd" clip-rule="evenodd" d="M53.2526 32.7602C54.0051 32.42 54.718 32.505 54.8368 32.9303C54.9556 33.3555 54.4804 33.9934 53.7279 34.3336C52.9754 34.6738 52.2625 34.5887 52.1437 34.1635C52.0249 33.7382 52.5002 33.1004 53.2526 32.7602Z" fill="#E47B06"/>
<path fill-rule="evenodd" clip-rule="evenodd" d="M53.4112 32.2073C54.1637 31.8671 54.8766 31.9521 54.9954 32.3774C55.1142 32.8026 54.639 33.4405 53.8865 33.7807C53.134 34.1209 52.4211 34.0359 52.3023 33.6106C52.1835 33.1854 52.6984 32.5475 53.4112 32.2073Z" fill="#F8DAB0"/>
<path fill-rule="evenodd" clip-rule="evenodd" d="M66.0842 30.2937C66.8763 30.1661 67.5495 30.4638 67.5495 30.889C67.5495 31.3568 66.9159 31.8246 66.1238 31.9096C65.3317 32.0372 64.6584 31.7395 64.6584 31.3143C64.6188 30.889 65.2525 30.4212 66.0842 30.2937Z" fill="#E47B06"/>
<path fill-rule="evenodd" clip-rule="evenodd" d="M66.3616 29.8259C67.1537 29.6984 67.827 29.996 67.827 30.4213C67.827 30.8891 67.1933 31.3568 66.4012 31.4419C65.6092 31.5695 64.9359 31.2718 64.9359 30.8465C64.9359 30.4213 65.5695 29.9535 66.3616 29.8259Z" fill="#F8DAB0"/>
<path fill-rule="evenodd" clip-rule="evenodd" d="M75.9064 36.1621C76.4609 36.8 76.6589 37.5229 76.3024 37.8206C75.9856 38.1183 75.2331 37.8206 74.6787 37.1827C74.1242 36.5449 73.9262 35.8219 74.2826 35.5243C74.6391 35.2266 75.352 35.5243 75.9064 36.1621Z" fill="#E47B06"/>
<path fill-rule="evenodd" clip-rule="evenodd" d="M76.4606 36.1196C77.0151 36.7575 77.2131 37.4804 76.8567 37.7781C76.5398 38.0757 75.7874 37.7781 75.2329 37.1402C74.6785 36.5023 74.4804 35.7794 74.8369 35.4817C75.1537 35.2266 75.9062 35.5242 76.4606 36.1196Z" fill="#F8DAB0"/>
<path fill-rule="evenodd" clip-rule="evenodd" d="M46.0052 25.3608C46.7973 25.0631 47.5498 25.1481 47.6686 25.5734C47.827 25.9561 47.2725 26.5089 46.52 26.7641C45.728 27.0618 44.9755 26.9767 44.8567 26.5515C44.6983 26.2113 45.2527 25.6584 46.0052 25.3608Z" fill="#E47B06"/>
<path fill-rule="evenodd" clip-rule="evenodd" d="M46.2033 24.893C46.9954 24.5954 47.7479 24.6804 47.8667 25.1057C48.0251 25.4884 47.4706 26.0412 46.7182 26.2964C45.9261 26.594 45.1736 26.509 45.0548 26.0837C44.8964 25.7435 45.4112 25.1907 46.2033 24.893Z" fill="#F8DAB0"/>
<path fill-rule="evenodd" clip-rule="evenodd" d="M40.2232 28.8053C41.1737 28.7203 41.9658 29.018 42.0054 29.4432C42.0054 29.8685 41.2529 30.2937 40.3024 30.3788C39.3519 30.4638 38.5598 30.1661 38.5202 29.7409C38.4806 29.3156 39.2331 28.8904 40.2232 28.8053Z" fill="#E47B06"/>
<path fill-rule="evenodd" clip-rule="evenodd" d="M40.5795 28.3801C41.53 28.295 42.3221 28.5927 42.3617 29.018C42.3617 29.4432 41.6092 29.8685 40.6587 29.9535C39.7082 30.0386 38.9161 29.7409 38.8765 29.3156C38.8369 28.8904 39.629 28.4651 40.5795 28.3801Z" fill="#F8DAB0"/>
<path fill-rule="evenodd" clip-rule="evenodd" d="M56.8962 24C74.4407 24 82.2031 35.8645 83.2328 44.2844C81.213 51.9389 70.2031 57.7648 56.9358 57.7648C43.51 57.7648 32.4209 51.8113 30.5595 44.0718C31.7081 35.6944 39.51 24 56.8962 24Z" fill="#E47B06"/>
<path fill-rule="evenodd" clip-rule="evenodd" d="M58.1237 24.3402C71.1534 24.1701 81.2128 35.0139 81.7672 41.988C81.2128 48.9621 70.8365 54.5329 58.1237 54.5329C45.4108 54.5329 35.0346 48.9621 34.4801 41.988C35.0346 34.9714 45.094 24.5103 58.1237 24.3402Z" fill="#FC9E14"/>
<path fill-rule="evenodd" clip-rule="evenodd" d="M60.4209 25.6585C66.9556 25.6159 71.9853 29.3156 72.2625 31.7395C71.9853 34.1209 66.7972 36.0345 60.4209 36.0345C54.0447 36.0345 48.8566 34.1209 48.5793 31.7395C48.8962 29.3581 53.9259 25.7435 60.4209 25.6585Z" fill="#FEBD30"/>
<path d="M45.6488 44.0718C46.4799 44.0718 47.1537 43.6719 47.1537 43.1787C47.1537 42.6855 46.4799 42.2857 45.6488 42.2857C44.8176 42.2857 44.1438 42.6855 44.1438 43.1787C44.1438 43.6719 44.8176 44.0718 45.6488 44.0718Z" fill="#E47B06"/>
<path d="M45.9651 43.604C46.7963 43.604 47.4701 43.2042 47.4701 42.711C47.4701 42.2177 46.7963 41.8179 45.9651 41.8179C45.134 41.8179 44.4602 42.2177 44.4602 42.711C44.4602 43.2042 45.134 43.604 45.9651 43.604Z" fill="#F8DAB0"/>
<path d="M55.7115 39.1428C55.8856 38.6864 55.4032 38.0422 54.634 37.704C53.8649 37.3657 53.1002 37.4615 52.9261 37.9179C52.7521 38.3744 53.2345 39.0186 54.0036 39.3568C54.7728 39.695 55.5374 39.5992 55.7115 39.1428Z" fill="#E47B06"/>
<path d="M56.1916 38.8406C56.3657 38.3842 55.8835 37.7399 55.1144 37.4015C54.3453 37.0631 53.5807 37.1587 53.4065 37.615C53.2323 38.0714 53.7146 38.7157 54.4837 39.0541C55.2527 39.3925 56.0174 39.2969 56.1916 38.8406Z" fill="#F8DAB0"/>
<path d="M64.6783 43.2303C64.5091 42.7718 63.7456 42.6664 62.9729 42.995C62.2002 43.3236 61.7108 43.9617 61.88 44.4203C62.0491 44.8788 62.8126 44.9841 63.5853 44.6555C64.3581 44.3269 64.8474 43.6888 64.6783 43.2303Z" fill="#E47B06"/>
<path d="M64.8121 42.6935C64.6429 42.235 63.8794 42.1297 63.1067 42.4583C62.3339 42.7869 61.8446 43.425 62.0138 43.8835C62.1829 44.342 62.9464 44.4474 63.7191 44.1188C64.4919 43.7902 64.9812 43.1521 64.8121 42.6935Z" fill="#F8DAB0"/>
<path d="M71.3429 36.4028C71.415 35.9157 70.8079 35.4074 69.9871 35.2675C69.1662 35.1275 68.4424 35.4089 68.3704 35.896C68.2983 36.3831 68.9054 36.8914 69.7262 37.0314C70.5471 37.1713 71.2709 36.8899 71.3429 36.4028Z" fill="#E47B06"/>
<path d="M71.725 35.9834C71.7969 35.4962 71.1896 34.9881 70.3687 34.8484C69.5478 34.7088 68.824 34.9904 68.7521 35.4776C68.6802 35.9647 69.2874 36.4728 70.1084 36.6125C70.9293 36.7522 71.6531 36.4705 71.725 35.9834Z" fill="#F8DAB0"/>
<path d="M47.7151 31.0549C47.5102 30.6134 46.7411 30.5782 45.9971 30.9762C45.2531 31.3743 44.8161 32.0548 45.0209 32.4963C45.2258 32.9378 45.995 32.973 46.739 32.5749C47.4829 32.1769 47.92 31.4963 47.7151 31.0549Z" fill="#E47B06"/>
<path d="M47.8319 30.4416C47.6271 30.0002 46.858 29.9651 46.1141 30.3631C45.3702 30.7611 44.9332 31.4416 45.1381 31.8831C45.3429 32.3245 46.112 32.3596 46.8559 31.9616C47.5998 31.5636 48.0368 30.8831 47.8319 30.4416Z" fill="#F8DAB0"/>
<path d="M62.7728 36.0966C63.1425 35.6639 62.8672 34.7469 62.1581 34.0483C61.4489 33.3498 60.5743 33.1342 60.2046 33.5669C59.835 33.9995 60.1103 34.9166 60.8194 35.6152C61.5286 36.3137 62.4032 36.5293 62.7728 36.0966Z" fill="#E47B06"/>
<path d="M63.4071 35.9697C63.7767 35.537 63.5013 34.62 62.792 33.9215C62.0827 33.2231 61.2081 33.0076 60.8385 33.4404C60.4689 33.8731 60.7443 34.7901 61.4536 35.4886C62.1629 36.187 63.0375 36.4024 63.4071 35.9697Z" fill="#F8DAB0"/>
<path fill-rule="evenodd" clip-rule="evenodd" d="M75.0744 30.8891C75.8269 31.2293 76.2625 31.8246 76.0645 32.2073C75.8665 32.59 75.114 32.6751 74.3616 32.3349C73.6091 31.9947 73.1734 31.3993 73.3715 31.0166C73.5695 30.6339 74.322 30.5914 75.0744 30.8891Z" fill="#E47B06"/>
<path fill-rule="evenodd" clip-rule="evenodd" d="M75.5496 30.6764C76.302 31.0166 76.7377 31.612 76.5396 31.9947C76.3416 32.3774 75.5892 32.4625 74.8367 32.1223C74.0842 31.7821 73.6486 31.1867 73.8466 30.804C74.0446 30.3788 74.8367 30.3362 75.5496 30.6764Z" fill="#F8DAB0"/>
<path fill-rule="evenodd" clip-rule="evenodd" d="M38.282 34.8013C39.0345 35.1415 39.4701 35.7369 39.2721 36.1196C39.0741 36.5023 38.3216 36.5874 37.5691 36.2472C36.8167 35.907 36.381 35.3116 36.579 34.9289C36.7771 34.5462 37.5295 34.4611 38.282 34.8013Z" fill="#E47B06"/>
<path fill-rule="evenodd" clip-rule="evenodd" d="M38.797 34.5462C39.5494 34.8864 39.9851 35.4817 39.7871 35.8645C39.589 36.2472 38.8366 36.3322 38.0841 35.992C37.3316 35.6518 36.896 35.0565 37.094 34.6738C37.2524 34.291 38.0445 34.206 38.797 34.5462Z" fill="#F8DAB0"/>
<path d="M54.7734 25.6192C54.4189 25.3057 53.7031 25.6099 53.1746 26.2988C52.6462 26.9877 52.5052 27.8004 52.8597 28.1139C53.2143 28.4275 53.9301 28.1233 54.4586 27.4344C54.987 26.7455 55.128 25.9328 54.7734 25.6192Z" fill="#E47B06"/>
<path d="M54.678 25.0446C54.3235 24.7311 53.6077 25.0353 53.0792 25.7242C52.5508 26.4131 52.4098 27.2258 52.7643 27.5393C53.1189 27.8529 53.8347 27.5487 54.3632 26.8598C54.8916 26.1709 55.0326 25.3582 54.678 25.0446Z" fill="#F8DAB0"/>
<path d="M66.6338 26.627C66.7058 26.1399 66.0988 25.6316 65.2779 25.4917C64.4571 25.3517 63.7333 25.6331 63.6612 26.1202C63.5892 26.6073 64.1963 27.1156 65.0171 27.2556C65.838 27.3955 66.5618 27.1141 66.6338 26.627Z" fill="#E47B06"/>
<path d="M67.0191 26.2124C67.0911 25.7254 66.484 25.2171 65.6632 25.0771C64.8423 24.9372 64.1185 25.2186 64.0465 25.7057C63.9745 26.1928 64.5815 26.7011 65.4024 26.841C66.2232 26.981 66.947 26.6995 67.0191 26.2124Z" fill="#F8DAB0"/>
<path fill-rule="evenodd" clip-rule="evenodd" d="M53.2526 32.7602C54.0051 32.42 54.718 32.505 54.8368 32.9303C54.9556 33.3555 54.4804 33.9934 53.7279 34.3336C52.9754 34.6738 52.2625 34.5887 52.1437 34.1635C52.0249 33.7382 52.5002 33.1004 53.2526 32.7602Z" fill="#E47B06"/>
<path fill-rule="evenodd" clip-rule="evenodd" d="M53.4107 32.2073C54.1631 31.8671 54.876 31.9521 54.9948 32.3774C55.1136 32.8026 54.6384 33.4405 53.8859 33.7807C53.1334 34.1209 52.4206 34.0359 52.3018 33.6106C52.1829 33.1854 52.6978 32.5475 53.4107 32.2073Z" fill="#F8DAB0"/>
<path fill-rule="evenodd" clip-rule="evenodd" d="M66.0842 30.2937C66.8763 30.1661 67.5496 30.4638 67.5496 30.889C67.5496 31.3568 66.9159 31.8246 66.1238 31.9096C65.3317 32.0372 64.6585 31.7395 64.6585 31.3143C64.6189 30.889 65.2525 30.4212 66.0842 30.2937Z" fill="#E47B06"/>
<path fill-rule="evenodd" clip-rule="evenodd" d="M66.3616 29.8259C67.1537 29.6984 67.827 29.996 67.827 30.4213C67.827 30.8891 67.1933 31.3568 66.4012 31.4419C65.6092 31.5695 64.9359 31.2718 64.9359 30.8465C64.9359 30.4213 65.5695 29.9535 66.3616 29.8259Z" fill="#F8DAB0"/>
<path fill-rule="evenodd" clip-rule="evenodd" d="M75.9058 36.1621C76.4603 36.8 76.6583 37.5229 76.3019 37.8206C75.985 38.1183 75.2326 37.8206 74.6781 37.1827C74.1237 36.5449 73.9256 35.8219 74.2821 35.5243C74.6385 35.2266 75.3514 35.5243 75.9058 36.1621Z" fill="#E47B06"/>
<path fill-rule="evenodd" clip-rule="evenodd" d="M76.4606 36.1196C77.0151 36.7575 77.2131 37.4804 76.8567 37.7781C76.5398 38.0757 75.7874 37.7781 75.2329 37.1402C74.6785 36.5023 74.4804 35.7794 74.8369 35.4817C75.1537 35.2266 75.9062 35.5242 76.4606 36.1196Z" fill="#F8DAB0"/>
<path fill-rule="evenodd" clip-rule="evenodd" d="M46.0052 25.3608C46.7973 25.0631 47.5498 25.1481 47.6686 25.5734C47.827 25.9561 47.2725 26.5089 46.52 26.7641C45.728 27.0618 44.9755 26.9767 44.8567 26.5515C44.6983 26.2113 45.2527 25.6584 46.0052 25.3608Z" fill="#E47B06"/>
<path fill-rule="evenodd" clip-rule="evenodd" d="M46.2033 24.893C46.9954 24.5954 47.7479 24.6804 47.8667 25.1057C48.0251 25.4884 47.4706 26.0412 46.7182 26.2964C45.9261 26.594 45.1736 26.509 45.0548 26.0837C44.8964 25.7435 45.4112 25.1907 46.2033 24.893Z" fill="#F8DAB0"/>
<path fill-rule="evenodd" clip-rule="evenodd" d="M40.2226 28.8053C41.1731 28.7203 41.9652 29.018 42.0048 29.4432C42.0048 29.8685 41.2523 30.2937 40.3018 30.3788C39.3513 30.4638 38.5593 30.1661 38.5197 29.7409C38.48 29.3156 39.2325 28.8904 40.2226 28.8053Z" fill="#E47B06"/>
<path fill-rule="evenodd" clip-rule="evenodd" d="M40.5795 28.3801C41.53 28.295 42.3221 28.5927 42.3617 29.018C42.3617 29.4432 41.6092 29.8685 40.6587 29.9535C39.7082 30.0386 38.9161 29.7409 38.8765 29.3156C38.8369 28.8904 39.629 28.4651 40.5795 28.3801Z" fill="#F8DAB0"/>
<path fill-rule="evenodd" clip-rule="evenodd" d="M38.6783 70.0545C38.9159 70.0545 39.0743 69.7143 39.0743 69.2891C39.0743 68.8638 38.8763 68.5236 38.6783 68.5236C38.4406 68.5236 38.2822 68.8638 38.2822 69.2891C38.2426 69.7143 38.4406 70.0545 38.6783 70.0545Z" fill="#883C3D"/>
<path d="M38.6783 69.6293C38.8971 69.6293 39.0744 69.3818 39.0744 69.0764C39.0744 68.7711 38.8971 68.5236 38.6783 68.5236C38.4596 68.5236 38.2823 68.7711 38.2823 69.0764C38.2823 69.3818 38.4596 69.6293 38.6783 69.6293Z" fill="#652D2D"/>
<path d="M39.8664 71.3727C40.0413 71.3727 40.1832 71.0872 40.1832 70.7349C40.1832 70.3826 40.0413 70.097 39.8664 70.097C39.6914 70.097 39.5495 70.3826 39.5495 70.7349C39.5495 71.0872 39.6914 71.3727 39.8664 71.3727Z" fill="#883C3D"/>
<path d="M39.8664 70.99C40.0413 70.99 40.1832 70.7996 40.1832 70.5648C40.1832 70.3299 40.0413 70.1395 39.8664 70.1395C39.6914 70.1395 39.5495 70.3299 39.5495 70.5648C39.5495 70.7996 39.6914 70.99 39.8664 70.99Z" fill="#652D2D"/>
<path d="M50.8765 73.6691C51.0952 73.6691 51.2725 73.3264 51.2725 72.9037C51.2725 72.4809 51.0952 72.1382 50.8765 72.1382C50.6578 72.1382 50.4804 72.4809 50.4804 72.9037C50.4804 73.3264 50.6578 73.6691 50.8765 73.6691Z" fill="#883C3D"/>
<path d="M50.8765 73.2439C51.0952 73.2439 51.2725 72.9964 51.2725 72.6911C51.2725 72.3857 51.0952 72.1382 50.8765 72.1382C50.6578 72.1382 50.4804 72.3857 50.4804 72.6911C50.4804 72.9964 50.6578 73.2439 50.8765 73.2439Z" fill="#652D2D"/>
<path d="M62.5197 75.3276C62.6947 75.3276 62.8365 75.042 62.8365 74.6897C62.8365 74.3374 62.6947 74.0519 62.5197 74.0519C62.3447 74.0519 62.2029 74.3374 62.2029 74.6897C62.2029 75.042 62.3447 75.3276 62.5197 75.3276Z" fill="#883C3D"/>
<path d="M62.5197 74.9449C62.6947 74.9449 62.8365 74.7545 62.8365 74.5196C62.8365 74.2848 62.6947 74.0944 62.5197 74.0944C62.3447 74.0944 62.2029 74.2848 62.2029 74.5196C62.2029 74.7545 62.3447 74.9449 62.5197 74.9449Z" fill="#652D2D"/>
<path d="M49.5693 73.7967C49.7443 73.7967 49.8862 73.5111 49.8862 73.1588C49.8862 72.8065 49.7443 72.5209 49.5693 72.5209C49.3944 72.5209 49.2525 72.8065 49.2525 73.1588C49.2525 73.5111 49.3944 73.7967 49.5693 73.7967Z" fill="#883C3D"/>
<path d="M49.5693 73.414C49.7443 73.414 49.8862 73.2236 49.8862 72.9887C49.8862 72.7539 49.7443 72.5635 49.5693 72.5635C49.3944 72.5635 49.2525 72.7539 49.2525 72.9887C49.2525 73.2236 49.3944 73.414 49.5693 73.414Z" fill="#652D2D"/>
<path d="M60.7774 73.5415C60.9523 73.5415 61.0942 73.2559 61.0942 72.9037C61.0942 72.5514 60.9523 72.2658 60.7774 72.2658C60.6024 72.2658 60.4605 72.5514 60.4605 72.9037C60.4605 73.2559 60.6024 73.5415 60.7774 73.5415Z" fill="#883C3D"/>
<path d="M60.7774 73.1163C60.9523 73.1163 61.0942 72.9259 61.0942 72.691C61.0942 72.4562 60.9523 72.2658 60.7774 72.2658C60.6024 72.2658 60.4605 72.4562 60.4605 72.691C60.4605 72.9259 60.6024 73.1163 60.7774 73.1163Z" fill="#652D2D"/>
<path fill-rule="evenodd" clip-rule="evenodd" d="M47.8666 72.9037C48.1834 72.9037 48.421 72.4359 48.421 71.8405C48.421 71.2452 48.1834 70.7774 47.8666 70.7774C47.5498 70.7774 47.3121 71.2452 47.3121 71.8405C47.3121 72.4359 47.5498 72.9037 47.8666 72.9037Z" fill="#883C3D"/>
<path fill-rule="evenodd" clip-rule="evenodd" d="M47.8666 72.3083C48.1834 72.3083 48.421 71.9681 48.421 71.5429C48.421 71.1176 48.1834 70.7774 47.8666 70.7774C47.5498 70.7774 47.3121 71.1176 47.3121 71.5429C47.3121 71.9681 47.5498 72.3083 47.8666 72.3083Z" fill="#652D2D"/>
<path d="M45.4507 73.0737C45.6257 73.0737 45.7676 72.7882 45.7676 72.4359C45.7676 72.0836 45.6257 71.798 45.4507 71.798C45.2758 71.798 45.1339 72.0836 45.1339 72.4359C45.1339 72.7882 45.2758 73.0737 45.4507 73.0737Z" fill="#883C3D"/>
<path d="M45.4507 72.6485C45.6257 72.6485 45.7676 72.4581 45.7676 72.2232C45.7676 71.9884 45.6257 71.798 45.4507 71.798C45.2758 71.798 45.1339 71.9884 45.1339 72.2232C45.1339 72.4581 45.2758 72.6485 45.4507 72.6485Z" fill="#652D2D"/>
<path fill-rule="evenodd" clip-rule="evenodd" d="M58.7176 73.1163C58.9552 73.1163 59.1136 72.7761 59.1136 72.3508C59.1136 71.9256 58.9156 71.5854 58.7176 71.5854C58.5196 71.5854 58.3216 71.9256 58.3216 72.3508C58.3216 72.7761 58.5196 73.1163 58.7176 73.1163Z" fill="#883C3D"/>
<path d="M58.7176 72.691C58.9363 72.691 59.1136 72.4435 59.1136 72.1382C59.1136 71.8329 58.9363 71.5854 58.7176 71.5854C58.4989 71.5854 58.3216 71.8329 58.3216 72.1382C58.3216 72.4435 58.4989 72.691 58.7176 72.691Z" fill="#652D2D"/>
<path fill-rule="evenodd" clip-rule="evenodd" d="M55.7872 75.4126C56.0248 75.4126 56.1832 75.0724 56.1832 74.6471C56.1832 74.2219 55.9852 73.8817 55.7872 73.8817C55.5495 73.8817 55.3911 74.2219 55.3911 74.6471C55.3911 75.0724 55.5495 75.4126 55.7872 75.4126Z" fill="#883C3D"/>
<path d="M55.7872 74.9874C56.0059 74.9874 56.1832 74.7398 56.1832 74.4345C56.1832 74.1292 56.0059 73.8817 55.7872 73.8817C55.5684 73.8817 55.3911 74.1292 55.3911 74.4345C55.3911 74.7398 55.5684 74.9874 55.7872 74.9874Z" fill="#652D2D"/>
<path fill-rule="evenodd" clip-rule="evenodd" d="M48.4206 76.0079C50.2027 77.1136 51.9453 78.3893 53.8067 79.3249C55.4305 80.1329 56.8562 80.0903 57.8463 79.4525C59.7077 78.3043 60.777 77.3262 62.5988 76.3056C58.0047 77.6239 53.7275 77.5814 48.4206 76.0079Z" fill="#FFF38A"/>
</g>
<path d="M35.44 126.272C36.0693 126.389 36.5867 126.704 36.992 127.216C37.3973 127.728 37.6 128.315 37.6 128.976C37.6 129.573 37.4507 130.101 37.152 130.56C36.864 131.008 36.4427 131.36 35.888 131.616C35.3333 131.872 34.6773 132 33.92 132H29.104V120.832H33.712C34.4693 120.832 35.12 120.955 35.664 121.2C36.2187 121.445 36.6347 121.787 36.912 122.224C37.2 122.661 37.344 123.157 37.344 123.712C37.344 124.363 37.168 124.907 36.816 125.344C36.4747 125.781 36.016 126.091 35.44 126.272ZM31.344 125.44H33.392C33.9253 125.44 34.336 125.323 34.624 125.088C34.912 124.843 35.056 124.496 35.056 124.048C35.056 123.6 34.912 123.253 34.624 123.008C34.336 122.763 33.9253 122.64 33.392 122.64H31.344V125.44ZM33.6 130.176C34.144 130.176 34.5653 130.048 34.864 129.792C35.1733 129.536 35.328 129.173 35.328 128.704C35.328 128.224 35.168 127.851 34.848 127.584C34.528 127.307 34.096 127.168 33.552 127.168H31.344V130.176H33.6ZM48.0732 123.136V132H45.8173V130.88C45.5293 131.264 45.1506 131.568 44.6813 131.792C44.2226 132.005 43.7212 132.112 43.1772 132.112C42.4839 132.112 41.8706 131.968 41.3372 131.68C40.8039 131.381 40.3826 130.949 40.0732 130.384C39.7746 129.808 39.6252 129.125 39.6252 128.336V123.136H41.8652V128.016C41.8652 128.72 42.0412 129.264 42.3932 129.648C42.7452 130.021 43.2252 130.208 43.8333 130.208C44.4519 130.208 44.9372 130.021 45.2892 129.648C45.6413 129.264 45.8173 128.72 45.8173 128.016V123.136H48.0732ZM52.8434 124.512C53.1314 124.043 53.5047 123.675 53.9634 123.408C54.4327 123.141 54.966 123.008 55.5634 123.008V125.36H54.9714C54.2674 125.36 53.734 125.525 53.3714 125.856C53.0194 126.187 52.8434 126.763 52.8434 127.584V132H50.6034V123.136H52.8434V124.512ZM60.8641 122.992C61.5255 122.992 62.1068 123.125 62.6081 123.392C63.1095 123.648 63.5041 123.984 63.7921 124.4V123.136H66.0481V132.064C66.0481 132.885 65.8828 133.616 65.5521 134.256C65.2215 134.907 64.7255 135.419 64.0641 135.792C63.4028 136.176 62.6028 136.368 61.6641 136.368C60.4055 136.368 59.3708 136.075 58.5601 135.488C57.7601 134.901 57.3068 134.101 57.2001 133.088H59.4241C59.5415 133.493 59.7921 133.813 60.1761 134.048C60.5708 134.293 61.0455 134.416 61.6001 134.416C62.2508 134.416 62.7788 134.219 63.1841 133.824C63.5895 133.44 63.7921 132.853 63.7921 132.064V130.688C63.5041 131.104 63.1041 131.451 62.5921 131.728C62.0908 132.005 61.5148 132.144 60.8641 132.144C60.1175 132.144 59.4348 131.952 58.8161 131.568C58.1975 131.184 57.7068 130.645 57.3441 129.952C56.9921 129.248 56.8161 128.443 56.8161 127.536C56.8161 126.64 56.9921 125.845 57.3441 125.152C57.7068 124.459 58.1921 123.925 58.8001 123.552C59.4188 123.179 60.1068 122.992 60.8641 122.992ZM63.7921 127.568C63.7921 127.024 63.6855 126.56 63.4721 126.176C63.2588 125.781 62.9708 125.483 62.6081 125.28C62.2455 125.067 61.8561 124.96 61.4401 124.96C61.0241 124.96 60.6401 125.061 60.2881 125.264C59.9361 125.467 59.6481 125.765 59.4241 126.16C59.2108 126.544 59.1041 127.003 59.1041 127.536C59.1041 128.069 59.2108 128.539 59.4241 128.944C59.6481 129.339 59.9361 129.643 60.2881 129.856C60.6508 130.069 61.0348 130.176 61.4401 130.176C61.8561 130.176 62.2455 130.075 62.6081 129.872C62.9708 129.659 63.2588 129.36 63.4721 128.976C63.6855 128.581 63.7921 128.112 63.7921 127.568ZM76.7959 127.376C76.7959 127.696 76.7745 127.984 76.7319 128.24H70.2519C70.3052 128.88 70.5292 129.381 70.9239 129.744C71.3185 130.107 71.8039 130.288 72.3799 130.288C73.2119 130.288 73.8039 129.931 74.1559 129.216H76.5719C76.3159 130.069 75.8252 130.773 75.0999 131.328C74.3745 131.872 73.4839 132.144 72.4279 132.144C71.5745 132.144 70.8065 131.957 70.1239 131.584C69.4519 131.2 68.9239 130.661 68.5399 129.968C68.1665 129.275 67.9799 128.475 67.9799 127.568C67.9799 126.651 68.1665 125.845 68.5399 125.152C68.9132 124.459 69.4359 123.925 70.1079 123.552C70.7799 123.179 71.5532 122.992 72.4279 122.992C73.2705 122.992 74.0225 123.173 74.6839 123.536C75.3559 123.899 75.8732 124.416 76.2359 125.088C76.6092 125.749 76.7959 126.512 76.7959 127.376ZM74.4759 126.736C74.4652 126.16 74.2572 125.701 73.8519 125.36C73.4465 125.008 72.9505 124.832 72.3639 124.832C71.8092 124.832 71.3399 125.003 70.9559 125.344C70.5825 125.675 70.3532 126.139 70.2679 126.736H74.4759ZM80.9909 124.512C81.2789 124.043 81.6522 123.675 82.1109 123.408C82.5802 123.141 83.1135 123.008 83.7109 123.008V125.36H83.1189C82.4149 125.36 81.8815 125.525 81.5189 125.856C81.1669 126.187 80.9909 126.763 80.9909 127.584V132H78.7509V123.136H80.9909V124.512Z" fill="#07143B"/>
<path d="M40.5 164H72.5" stroke="#EA6A12"/>
<rect x="44.5" y="188" width="24" height="24" rx="12" fill="#EA6A12"/>
<path d="M54.75 196.5L58.25 200L54.75 203.5" stroke="white" stroke-width="1.5" stroke-linecap="round" stroke-linejoin="round"/>
<defs>
<clipPath id="clip0_2_2233">
<rect width="64" height="64" fill="white" transform="translate(24.5 24)"/>
</clipPath>
</defs>
</svg>
