<svg width="113" height="236" viewBox="0 0 113 236" fill="none" xmlns="http://www.w3.org/2000/svg">
<rect x="0.5" width="112" height="236" rx="24" fill="white" fill-opacity="0.4"/>
<path fill-rule="evenodd" clip-rule="evenodd" d="M31.4934 53.7957L80.5485 52.9413L71.8811 74.0894C70.0205 78.6609 63.622 82.506 55.1361 82.506C46.6955 82.506 39.9794 78.789 38.3911 74.1322L31.4934 53.7957Z" fill="#CAD5DD"/>
<path fill-rule="evenodd" clip-rule="evenodd" d="M67.435 79.1308C65.6199 80.3271 63.3509 81.3097 60.7643 81.8652C58.9037 82.2497 56.907 82.4206 54.8196 82.4206C54.3658 82.4206 53.8666 82.4206 53.4128 82.3778C49.2379 82.1215 45.6076 80.968 42.9302 79.259L38.9368 55.6328L73.6066 55.0774L67.435 79.1308Z" fill="#D7DFE2"/>
<path fill-rule="evenodd" clip-rule="evenodd" d="M65.1198 80.4126C63.8038 81.0107 62.3063 81.5234 60.718 81.8652C58.8574 82.2497 56.8608 82.4206 54.7733 82.4206C54.3195 82.4206 53.8203 82.4206 53.3665 82.3779C51.0976 82.2497 48.9647 81.8224 47.0588 81.1816L46.6958 55.5474L69.1132 55.1629L65.1198 80.4126Z" fill="#F3F6F9"/>
<path fill-rule="evenodd" clip-rule="evenodd" d="M31.4934 53.7957L80.5485 52.9413L72.5164 72.0387C69.8844 76.1829 63.3044 79.1736 55.3176 79.1736C46.7863 79.1736 39.6163 75.7557 37.5743 71.1415L31.4934 53.7957Z" fill="#C8252F"/>
<path fill-rule="evenodd" clip-rule="evenodd" d="M68.208 76.012C64.8953 77.9773 60.4028 79.1736 55.3203 79.1736C50.2378 79.1736 45.6091 77.9773 42.2964 76.012L38.8476 55.6756L73.5174 55.1201L68.208 76.012Z" fill="#DA242C"/>
<path fill-rule="evenodd" clip-rule="evenodd" d="M58.8711 68.8602C58.7349 68.6465 58.5534 68.5184 58.3719 68.3902C58.2811 68.3475 58.1904 68.3047 58.0542 68.262C57.9635 68.2193 57.9181 68.2193 57.8273 68.2193C57.782 68.2193 57.6912 68.1766 57.6458 68.1766H57.6004C57.3282 68.1339 57.0559 68.1339 56.7836 68.1766C56.6928 68.1766 56.6475 68.2193 56.6021 68.2193C56.4206 68.262 56.1937 68.3047 56.0122 68.3475C55.876 68.3902 55.7399 68.4329 55.6037 68.4756C55.4676 68.5184 55.3315 68.6038 55.2407 68.6893C55.0592 68.7747 54.9231 68.9029 54.7869 69.031C54.56 69.2447 54.3785 69.4583 54.2877 69.6719C54.197 69.8855 54.1062 70.1419 54.1062 70.3555C54.1062 70.5691 54.1516 70.74 54.2424 70.9109C54.2424 70.9536 54.2424 70.9963 54.2877 70.9963C54.3331 71.0818 54.3785 71.1245 54.4239 71.21C54.5146 71.3381 54.6054 71.4236 54.6962 71.509C54.8777 71.6372 55.0592 71.8081 55.2861 71.8935C55.513 72.0217 55.7399 72.1072 55.9668 72.1926C56.0122 72.1926 56.0575 72.2353 56.1029 72.2353C56.2844 72.3208 56.466 72.4062 56.6475 72.4489C56.8744 72.5344 57.0559 72.6198 57.2374 72.748C57.3282 72.8335 57.4643 72.8762 57.5097 72.9616C57.5551 73.0043 57.6004 73.0471 57.6458 73.0898C57.6458 73.1325 57.6912 73.1752 57.6912 73.1752C57.7366 73.3034 57.782 73.4316 57.782 73.6025C57.782 73.7734 57.7366 73.9443 57.6458 74.0724C57.6458 74.1152 57.6004 74.1579 57.6004 74.2006C57.5551 74.2433 57.5551 74.2861 57.5097 74.3288C57.4189 74.457 57.2828 74.5851 57.1466 74.7133C57.0105 74.8415 56.829 74.9269 56.6475 75.0124C56.6021 75.0551 56.5567 75.0551 56.5113 75.0978C56.2844 75.1833 56.0575 75.226 55.7853 75.2687C55.6037 75.3114 55.3768 75.2687 55.1953 75.2687C55.15 75.2687 55.1046 75.226 55.0592 75.226C54.9231 75.1833 54.8323 75.1405 54.6962 75.0978C54.6508 75.0551 54.6054 75.0551 54.56 75.0124C54.4693 74.9269 54.3785 74.8842 54.3331 74.756C54.2424 74.6278 54.197 74.4569 54.197 74.2433C54.197 74.1579 54.197 74.0724 54.197 73.987C54.197 73.9443 54.197 73.9015 54.197 73.8588C54.197 73.8161 54.197 73.8161 54.197 73.7734C54.197 73.7306 54.2424 73.6452 54.2424 73.6025C54.2424 73.5598 54.2424 73.517 54.2424 73.517V73.4743C54.2424 73.3889 54.197 73.3034 54.1516 73.2607C54.1062 73.218 54.0155 73.1752 53.9247 73.1752C53.8793 73.1752 53.8793 73.1752 53.8339 73.1752C53.7886 73.1752 53.6978 73.218 53.6524 73.2607C53.5617 73.3034 53.4709 73.3889 53.3802 73.4743C53.2894 73.5598 53.244 73.6879 53.1533 73.8161C53.1079 73.9443 53.0625 74.1152 53.0625 74.2861C53.0625 74.6278 53.1533 74.9269 53.2894 75.1833C53.4255 75.4396 53.6071 75.6105 53.8793 75.7814L53.9247 75.8241C54.197 75.995 54.4693 76.1232 54.7869 76.1659C55.1046 76.2086 55.4676 76.2513 55.7853 76.2086C55.8306 76.2086 55.8306 76.2086 55.876 76.2086C56.0575 76.1659 56.2391 76.1659 56.4206 76.0804C56.466 76.0804 56.5113 76.0805 56.5567 76.0377C56.7836 75.9523 57.0105 75.8668 57.2374 75.7387C57.2828 75.6959 57.3282 75.6959 57.3735 75.6532C57.5551 75.5678 57.6912 75.4396 57.8727 75.3114C58.0542 75.1405 58.2357 74.9696 58.3719 74.756C58.4173 74.7133 58.4626 74.6278 58.508 74.5851C58.5988 74.457 58.6442 74.2861 58.7349 74.1579C58.7803 74.0297 58.8257 73.9443 58.8257 73.8161C58.8257 73.6879 58.8711 73.5598 58.8711 73.4316C58.8711 73.4316 58.8711 73.4316 58.8711 73.3889C58.8711 73.1752 58.8257 73.0471 58.7803 72.8762C58.7803 72.8335 58.7349 72.748 58.7349 72.7053C58.6895 72.6198 58.6442 72.5344 58.5534 72.4489C58.4626 72.3635 58.4173 72.278 58.2811 72.1926C58.0996 72.0644 57.9181 71.9363 57.6912 71.8508C57.6004 71.8081 57.4643 71.7654 57.3735 71.7226C57.2374 71.6799 57.1466 71.6372 57.0105 71.5517C56.829 71.4663 56.6475 71.4236 56.466 71.3381C56.4206 71.3381 56.3752 71.2954 56.3298 71.2954C56.1029 71.21 55.9214 71.1245 55.7399 70.9963C55.5584 70.9109 55.4222 70.7827 55.3315 70.6118C55.2407 70.4836 55.1953 70.3128 55.1953 70.1419C55.1953 70.0991 55.1953 70.0564 55.1953 70.0137V69.971C55.1953 69.9282 55.2407 69.8855 55.2407 69.8428C55.2861 69.8001 55.2861 69.7573 55.3315 69.7146C55.3768 69.6719 55.4222 69.6292 55.4676 69.5865L55.513 69.5437C55.5584 69.501 55.6037 69.4583 55.6491 69.4583L55.6945 69.4156C55.7853 69.3728 55.8306 69.3301 55.9214 69.2874C56.0575 69.2447 56.1937 69.2019 56.3752 69.1592C56.4206 69.1592 56.5113 69.1165 56.5567 69.1165C56.7836 69.0738 56.9651 69.0738 57.192 69.0738C57.3282 69.0738 57.4643 69.1165 57.5551 69.1165C57.6004 69.1165 57.6458 69.1165 57.6912 69.1592C57.782 69.2019 57.8273 69.2447 57.8727 69.2874C57.9181 69.3301 57.9635 69.3728 58.0089 69.4156C58.0089 69.4583 58.0542 69.4583 58.0542 69.501C58.0996 69.5865 58.145 69.6719 58.145 69.7573C58.145 69.8428 58.145 69.971 58.0996 70.0564C58.0996 70.0991 58.0542 70.1419 58.0542 70.1846C58.0542 70.2273 58.0089 70.3128 57.9635 70.3555C57.9635 70.3982 57.9181 70.3982 57.9181 70.4409C57.9181 70.4836 57.8727 70.4837 57.8727 70.5264C57.8273 70.6118 57.782 70.6973 57.7366 70.7827V70.8254C57.7366 70.8682 57.6912 70.9109 57.6912 70.9536V70.9963C57.6912 71.0391 57.6912 71.0818 57.6912 71.1245V71.1672C57.6912 71.2527 57.7366 71.2954 57.782 71.3381C57.8273 71.3381 57.8273 71.3808 57.8727 71.3808C57.9181 71.3808 57.9181 71.3808 57.9635 71.3808C58.0542 71.3808 58.1904 71.2954 58.3265 71.1672C58.3719 71.1245 58.4173 71.0818 58.4173 71.0391C58.508 70.9536 58.5988 70.8254 58.6895 70.6973C58.8257 70.4837 58.8711 70.3128 58.9618 70.0991C58.9618 70.0564 58.9618 70.0137 59.0072 69.971C59.0526 69.8428 59.0526 69.7146 59.0526 69.5865C59.0526 69.2874 59.0072 69.031 58.8711 68.8602Z" fill="#FFF3AD"/>
<path fill-rule="evenodd" clip-rule="evenodd" d="M31.4934 53.7957H80.1855L77.6443 59.8625C72.6525 63.7076 64.7111 66.1856 55.8168 66.1856C46.6048 66.1856 38.4365 63.494 33.4448 59.4352L31.4934 53.7957Z" fill="#C8252F"/>
<path fill-rule="evenodd" clip-rule="evenodd" d="M55.9091 57.0427C70.9751 57.0427 83.3183 49.8651 83.3183 41.0214C83.3183 32.1776 70.9751 25 55.9091 25C40.8432 25 28.5 32.1776 28.5 41.0214C28.5 49.8651 40.7978 57.0427 55.9091 57.0427Z" fill="url(#paint0_linear_2_1643)"/>
<path fill-rule="evenodd" clip-rule="evenodd" d="M55.9092 55.8037C69.7952 55.8037 81.1401 49.1388 81.1401 41.0214C81.1401 32.9039 69.7952 26.239 55.9092 26.239C41.9777 26.239 30.6328 32.8611 30.6328 41.0214C30.6328 49.1816 41.9777 55.8037 55.9092 55.8037Z" fill="#CAD5DD"/>
<path fill-rule="evenodd" clip-rule="evenodd" d="M55.9091 30.9386C68.207 30.9386 76.5568 36.4072 80.0056 42.9439H83.2275V45.7209C83.2729 46.1482 83.3183 46.5327 83.3183 46.9599C83.3183 55.8037 71.0659 62.9813 55.9091 62.9813C40.7524 62.9813 28.5 55.8037 28.5 46.9599V42.9439H32.7657C36.2145 36.4072 43.566 30.9386 55.9091 30.9386Z" fill="#E2E7EB"/>
<path fill-rule="evenodd" clip-rule="evenodd" d="M70.0202 27.1789C70.0202 29.3578 70.3379 31.1522 70.111 28.9733C70.0656 28.3752 73.106 27.0507 73.469 27.7343C73.8775 28.5033 73.8321 29.6569 73.3783 29.9987C71.0639 31.8358 74.2859 29.8278 75.6926 29.486C76.4641 29.2724 76.6456 28.8024 76.7817 28.8451C77.1902 29.016 75.7834 32.0494 75.1027 32.3485C73.6052 33.0748 74.1497 32.3912 75.8288 31.1949C76.3733 30.8104 77.1902 30.0414 77.5078 30.1696C77.7347 30.255 77.8255 32.7757 77.3263 33.4593C76.0557 35.1682 76.9633 34.1429 78.0524 32.2203C78.6877 31.1095 79.2776 30.4686 79.4591 30.6822C79.8222 31.0667 79.8675 33.7156 78.7331 33.032C78.4608 32.8611 84.0424 34.1429 83.5433 34.3992C82.8626 34.741 81.8189 35.04 80.3213 35.4673C80.5482 36.0227 83.4525 35.3391 83.1802 35.6382C80.9113 38.0734 84.7231 36.4499 84.3147 37.0481C82.5903 39.7396 80.3667 43.542 78.6877 46.0627C78.3246 46.6609 77.5986 47.729 76.8271 47.7717C76.2372 47.8144 75.6926 47.9853 74.9666 47.9426C74.5582 47.9426 72.743 47.8144 72.7884 47.8571C68.2958 44.781 68.6588 42.7303 69.1126 39.0988C69.4757 36.0227 68.8857 33.8011 67.9781 30.5968C67.5697 28.6742 67.4336 26.538 70.0202 27.1789Z" fill="#699B42"/>
<path fill-rule="evenodd" clip-rule="evenodd" d="M70.0223 27.1789C67.4357 27.3925 68.7063 29.1014 69.8862 28.4179C70.3854 28.1188 72.019 26.7516 73.0174 27.3498C73.6073 27.6916 73.6527 27.9479 73.2443 28.2897C70.9299 30.1268 74.1065 29.2296 75.4679 28.8878C78.236 28.1615 76.0578 29.4432 75.1048 29.8705C73.6073 30.5968 73.9703 31.793 75.6494 30.5968C76.557 29.9559 78.3721 29.3578 77.1469 31.0667C75.8763 32.7757 76.8292 33.5447 77.9184 31.6221C79.3705 29.0587 80.4596 31.024 78.599 32.4339C78.4175 32.5621 86.2228 34.5273 82.8193 34.4846C81.8664 34.4846 79.7789 33.2884 80.2327 34.3137C80.4596 34.8691 85.0883 35.5954 82.6832 35.6382C78.599 35.7236 85.1791 36.5354 84.453 37.0053C81.9117 38.6288 80.2781 42.9439 78.599 45.4646C78.236 46.0627 77.5099 47.1308 76.7385 47.1735C76.1486 47.2163 75.604 47.3872 74.8779 47.3444C74.4695 47.3444 72.6543 47.2163 72.6997 47.259C68.2072 44.1829 68.5702 42.1322 69.024 38.5006C69.387 35.4245 68.7971 33.2029 67.8895 29.9986C67.345 28.0761 67.4357 26.538 70.0223 27.1789Z" fill="#99CC33"/>
<path fill-rule="evenodd" clip-rule="evenodd" d="M68.2962 28.5033C68.2508 30.9386 69.2945 32.5193 69.7937 34.1855C69.9752 34.8264 69.8845 35.4673 70.0206 36.0654C70.1114 36.4926 70.0206 37.048 70.1568 36.2363C70.5198 34.0574 69.5214 31.9212 69.703 29.8277C69.7937 28.9733 71.2005 28.2897 70.3836 28.5033C69.8845 28.6315 68.6139 28.9305 68.2962 28.5033Z" fill="#D1DB39"/>
<path fill-rule="evenodd" clip-rule="evenodd" d="M72.3364 29.486C71.7918 30.3832 71.8372 31.494 71.7464 32.1776C71.5196 33.5447 71.2927 34.9546 70.9296 36.3217C70.5212 37.8598 71.4288 35.04 71.5649 34.6982C72.0641 33.3738 72.2002 32.6475 72.7902 31.3658C72.9263 31.1095 73.6978 29.9559 73.6978 29.785C73.2893 29.5287 72.654 29.8278 72.3364 29.486Z" fill="#D1DB39"/>
<path fill-rule="evenodd" clip-rule="evenodd" d="M74.1071 31.1522C73.6079 32.1349 73.5625 33.1175 73.4264 33.8011C73.3356 34.1001 73.1995 34.3565 73.1087 34.6555C72.9726 34.9973 72.8818 35.2537 73.1541 34.8264C73.6533 34.0574 74.1978 33.3311 74.6516 32.5621L75.5138 31.1522C75.6046 31.024 74.5155 31.5367 74.1071 31.1522Z" fill="#D1DB39"/>
<path fill-rule="evenodd" clip-rule="evenodd" d="M80.0056 34.0574C79.5971 34.4419 79.3702 34.9119 78.9618 35.3391L76.0576 38.2016L75.15 39.1415L75.8307 38.5861L80.2325 35.1255C81.0493 34.3992 79.9602 34.9546 80.0056 34.0574Z" fill="#D1DB39"/>
<path fill-rule="evenodd" clip-rule="evenodd" d="M81.0968 35.9372C80.8699 36.279 80.5522 36.9199 80.2346 37.1762C79.5539 37.7316 79.1001 38.287 78.5102 38.9706C77.6933 39.996 79.9623 37.8598 80.4161 37.6034C80.8245 37.3471 81.5506 37.1762 82.0498 37.0053C82.7304 36.7917 82.7304 36.749 81.9136 36.4926C81.6413 36.4072 81.0514 35.7663 81.0968 35.9372Z" fill="#D1DB39"/>
<path fill-rule="evenodd" clip-rule="evenodd" d="M78.5553 32.6048C77.7838 33.2456 77.6931 34.3992 76.8309 34.8691C76.2409 35.2109 76.1502 35.9799 75.9233 36.4499C75.6964 36.9199 76.3771 36.1081 76.4678 36.0227C77.1939 35.2109 78.4645 34.3137 79.4175 33.6729C79.7351 33.4592 80.0982 33.4165 79.236 33.1175C78.9637 33.1175 78.5553 32.6048 78.5553 32.6048Z" fill="#D1DB39"/>
<path fill-rule="evenodd" clip-rule="evenodd" d="M44.1567 26.7944C44.1567 28.9733 43.8391 30.7249 44.066 28.5888C44.1114 27.9906 41.0709 26.1535 40.7079 26.7089C40.2995 27.3925 40.3449 28.546 40.7987 28.9733C43.113 31.2376 39.8911 28.6742 38.4843 28.0761C37.7129 27.7343 37.5313 27.2216 37.3952 27.2643C36.9868 27.3498 38.3935 30.6395 39.0742 31.0667C40.5718 32.0494 40.0272 31.2803 38.3482 29.785C37.8036 29.3151 36.9868 28.4179 36.6691 28.5033C36.4422 28.546 36.3515 31.0667 36.8507 31.8358C38.1213 33.7583 37.2137 32.5621 36.1246 30.4686C35.4893 29.2296 34.8993 28.5033 34.7178 28.6742C34.3548 29.016 34.3094 31.6649 35.4439 31.1522C35.7162 31.024 30.1345 31.3658 30.6337 31.7076C31.3144 32.1775 32.3581 32.6475 33.8556 33.3311C33.6287 33.8438 30.7244 32.6902 30.9967 32.9893C33.2657 35.8091 29.4538 33.502 29.8622 34.2283C31.5866 37.2189 33.8102 41.4058 35.4893 44.2256C35.8523 44.8665 36.5784 46.0627 37.3498 46.2336C37.9398 46.3618 38.4843 46.6181 39.2104 46.7463C39.6188 46.789 41.434 47.0026 41.3886 47.0026C45.8811 44.6956 45.5181 42.6021 45.0643 38.8424C44.7013 35.6809 45.2912 33.5874 46.1988 30.5113C46.6072 28.7169 46.7434 26.6235 44.1567 26.7944Z" fill="#699B42"/>
<path fill-rule="evenodd" clip-rule="evenodd" d="M44.1587 26.7944C46.7453 27.4352 45.4747 28.9733 44.2948 28.0334C43.7956 27.6489 42.162 26.0254 41.1636 26.4099C40.5737 26.6662 40.5283 26.8798 40.9367 27.3071C43.2511 29.5714 40.0745 28.1188 38.7132 27.5207C35.945 26.3244 38.1232 27.9479 39.0762 28.5888C40.5737 29.5714 40.2107 30.725 38.5316 29.2296C37.624 28.4179 35.8089 27.5207 37.0341 29.4433C38.3047 31.3658 37.3518 32.0067 36.2627 29.8705C34.8105 27.0507 33.7214 28.8451 35.582 30.5541C35.7635 30.725 27.9582 31.3231 31.3617 31.8358C32.3147 31.9639 34.3567 31.1522 33.9483 32.1348C33.7214 32.6475 29.0927 32.5621 31.4978 33.032C35.582 33.8438 29.002 33.502 29.728 34.1001C32.2693 36.1936 33.9483 40.8077 35.582 43.6275C35.945 44.2684 36.6711 45.4646 37.4425 45.6355C38.0325 45.7637 38.577 46.02 39.3031 46.1482C39.7115 46.1909 41.5267 46.4045 41.4813 46.4045C45.9739 44.0975 45.6108 42.004 45.157 38.2443C44.794 35.0828 45.3839 32.9893 46.2915 29.9132C46.8361 28.1615 46.7453 26.6235 44.1587 26.7944Z" fill="#99CC33"/>
<path fill-rule="evenodd" clip-rule="evenodd" d="M45.8802 28.4179C45.9256 30.8531 44.8819 32.2203 44.3827 33.8438C44.2012 34.4419 44.292 35.1255 44.1558 35.6809C44.0651 36.1081 44.1558 36.6635 44.0197 35.8518C43.6567 33.5874 44.655 31.6222 44.4735 29.5287C44.3827 28.6742 42.976 27.7343 43.7928 28.1188C44.292 28.2897 45.5626 28.8024 45.8802 28.4179Z" fill="#D1DB39"/>
<path fill-rule="evenodd" clip-rule="evenodd" d="M41.8415 28.7169C42.3861 29.7423 42.3407 30.7677 42.4314 31.494C42.6583 32.9038 42.8852 34.3565 43.2483 35.7663C43.6567 37.3898 42.7491 34.3992 42.613 34.0574C42.1138 32.6475 41.9777 31.8785 41.3877 30.5113C41.2516 30.255 40.4801 28.9733 40.4801 28.7597C40.8885 28.5888 41.5239 28.9733 41.8415 28.7169Z" fill="#D1DB39"/>
<path fill-rule="evenodd" clip-rule="evenodd" d="M40.0723 30.0841C40.5715 31.1522 40.6169 32.1776 40.753 32.8611C40.8438 33.1602 40.9799 33.4593 41.0707 33.8011C41.1614 34.1001 41.2522 34.3992 40.9799 33.9292C40.4807 33.0748 39.9362 32.263 39.4824 31.4085L38.6202 29.8278C38.5748 29.6569 39.6639 30.3832 40.0723 30.0841Z" fill="#D1DB39"/>
<path fill-rule="evenodd" clip-rule="evenodd" d="M34.1728 31.964C34.5813 32.4339 34.8082 32.9466 35.2166 33.4166L38.1208 36.749L39.0284 37.8171L38.3477 37.1335L33.9459 32.9039C33.1291 32.0921 34.2182 32.8612 34.1728 31.964Z" fill="#D1DB39"/>
<path fill-rule="evenodd" clip-rule="evenodd" d="M33.0856 33.6302C33.3125 34.0147 33.6301 34.6983 33.9478 35.04C34.6285 35.7236 35.0823 36.3217 35.6722 37.1335C36.489 38.287 34.2201 35.7663 33.7663 35.4246C33.3578 35.1255 32.6318 34.7837 32.1326 34.5701C31.4519 34.2283 31.4519 34.1856 32.2687 34.0574C32.541 34.0147 33.1309 33.502 33.0856 33.6302Z" fill="#D1DB39"/>
<path fill-rule="evenodd" clip-rule="evenodd" d="M35.6243 30.7677C36.3957 31.5367 36.4865 32.6902 37.3487 33.3311C37.9386 33.7583 38.0294 34.5274 38.2563 35.04C38.4832 35.5527 37.8025 34.6555 37.7117 34.5274C36.9857 33.5874 35.715 32.4766 34.7621 31.7076C34.4444 31.4513 34.0814 31.3231 34.9436 31.1949C35.2159 31.1522 35.6243 30.725 35.6243 30.7677Z" fill="#D1DB39"/>
<path fill-rule="evenodd" clip-rule="evenodd" d="M47.8775 27.6062C48.6036 29.9132 49.602 31.6222 48.6036 29.4433C48.286 28.8452 51.5986 25.8545 52.2793 26.3672C53.0508 26.9653 53.3684 28.2043 52.96 28.8024C50.7364 31.964 54.0491 28.1616 55.6374 27.0508C56.545 26.4099 56.545 25.8118 56.7719 25.8118C57.3618 25.7691 56.5904 29.6996 55.8643 30.4259C54.276 31.964 54.7298 30.9386 56.3635 28.8024C56.908 28.1189 57.6341 26.8799 58.0879 26.8799C58.4056 26.8371 59.3585 29.4433 58.9955 30.4259C58.0425 32.9039 58.7686 31.3231 59.4947 28.717C59.9031 27.2217 60.4022 26.239 60.7199 26.3672C61.3098 26.5808 62.2174 29.3578 60.6291 29.1869C60.2207 29.1442 67.5268 27.5634 66.9823 28.1189C66.2562 28.8452 65.0763 29.6996 63.3519 30.9386C63.8057 31.4086 67.1184 29.1869 66.9369 29.6142C64.9856 33.3739 69.1151 29.6142 68.8428 30.5114C67.6176 34.2283 66.1654 39.4406 64.9856 42.944C64.7133 43.7557 64.2141 45.251 63.2612 45.721C62.5351 46.0628 61.9451 46.5327 61.0376 46.8745C60.5384 47.0881 58.224 47.8999 58.3602 47.8999C51.8255 47.0027 51.5986 44.6529 50.918 40.5942C50.3734 37.1335 48.8759 35.1255 46.6977 32.2203C45.3817 30.4259 44.4741 28.2897 47.8775 27.6062Z" fill="#699B42"/>
<path fill-rule="evenodd" clip-rule="evenodd" d="M47.8765 27.6062C44.7453 29.1869 46.9235 30.3405 48.1487 28.9733C48.6479 28.3752 50.2362 26.1108 51.643 26.239C52.4598 26.2817 52.6413 26.5381 52.2329 27.1362C50.0093 30.2978 53.5943 27.6916 55.1826 26.5808C58.3591 24.3592 56.0901 26.8371 55.0464 27.8198C53.4581 29.3578 54.275 30.4686 55.954 28.3325C56.8616 27.1789 58.9037 25.5982 57.9507 28.0334C56.9977 30.5114 58.4045 30.8104 59.0852 28.247C60.0381 24.7864 62.0348 26.2817 60.2197 28.717C60.0381 28.9733 70.2485 26.9226 66.0282 28.6743C64.8484 29.1442 61.9441 29.016 62.7609 29.8705C63.2147 30.3405 69.1594 28.6743 66.2097 29.9987C61.2634 32.2203 69.5678 29.6569 68.8417 30.5114C66.3005 33.5447 65.7106 38.9706 64.5307 42.4313C64.2584 43.243 63.7593 44.7383 62.8063 45.2083C62.0802 45.5501 61.4903 46.02 60.5827 46.3618C60.0835 46.5755 57.7692 47.3872 57.9053 47.3872C51.3707 46.49 51.1438 44.1402 50.4631 40.0815C49.9185 36.6208 48.421 34.6128 46.2428 31.7076C44.9268 29.956 44.473 28.2897 47.8765 27.6062Z" fill="#99CC33"/>
<path fill-rule="evenodd" clip-rule="evenodd" d="M46.1505 29.9133C46.922 32.5194 48.7371 33.5875 49.8716 35.1255C50.28 35.681 50.4162 36.45 50.7792 36.9627C51.0515 37.3472 51.0969 37.988 51.0061 37.0908C50.6885 34.6129 48.7825 32.8612 48.3287 30.5541C48.1472 29.6142 49.6901 28.1189 48.7371 28.8024C48.1926 29.2297 46.7404 30.2123 46.1505 29.9133Z" fill="#D1DB39"/>
<path fill-rule="evenodd" clip-rule="evenodd" d="M51.4645 28.8452C51.1014 30.0841 51.5552 31.1949 51.646 31.964C51.8275 33.5447 52.009 35.1255 52.0544 36.7063C52.0998 38.5434 52.2359 35.1255 52.2813 34.6983C52.4175 33.0748 52.3721 32.2203 52.6897 30.5541C52.7351 30.255 53.325 28.6315 53.2797 28.4179C52.6443 28.3752 51.9637 29.016 51.4645 28.8452Z" fill="#D1DB39"/>
<path fill-rule="evenodd" clip-rule="evenodd" d="M54.1853 29.6569C53.8676 30.9386 54.1853 32.0494 54.2307 32.8185C54.2307 33.1603 54.1399 33.5448 54.0945 33.9293C54.0945 34.2711 54.0492 34.6129 54.2307 34.0147C54.5483 32.9466 55.0021 31.8785 55.2744 30.8532L55.8643 28.8879C56.0005 28.717 54.8206 29.8705 54.1853 29.6569Z" fill="#D1DB39"/>
<path fill-rule="evenodd" clip-rule="evenodd" d="M62.3989 29.6142C62.0359 30.255 61.8997 30.8532 61.5367 31.494L58.9047 36.0654L58.0879 37.518L58.7232 36.5781L62.9435 30.6395C63.8057 29.4433 62.6258 30.5968 62.3989 29.6142Z" fill="#D1DB39"/>
<path fill-rule="evenodd" clip-rule="evenodd" d="M64.35 31.024C64.1684 31.494 64.0323 32.3485 63.7146 32.8184C63.034 33.7584 62.6709 34.5701 62.2171 35.5955C61.5364 37.0908 63.6239 33.6729 64.1231 33.1602C64.5315 32.6903 65.3483 32.0921 65.9382 31.7076C66.7097 31.1095 66.7097 31.0668 65.6206 31.1949C65.1668 31.2377 64.2592 30.8959 64.35 31.024Z" fill="#D1DB39"/>
<path fill-rule="evenodd" clip-rule="evenodd" d="M60.1766 28.8879C59.4051 29.956 59.7228 31.195 58.8152 32.2203C58.1799 32.8612 58.3614 33.7157 58.2253 34.3138C58.0891 34.9546 58.6791 33.7584 58.7244 33.6302C59.3598 32.3912 60.585 30.8105 61.538 29.6569C61.8556 29.2724 62.3094 29.0588 61.1296 29.187C60.8119 29.1442 60.1312 28.8452 60.1766 28.8879Z" fill="#D1DB39"/>
<path fill-rule="evenodd" clip-rule="evenodd" d="M33.5829 39.8251C33.5829 37.9025 34.672 38.4152 36.3057 38.2016C37.0317 38.1161 36.7141 33.7583 40.5713 36.0654C42.7495 37.3471 44.7009 34.8264 44.7009 32.3057C44.7009 29.2296 54.6389 35.5954 56.1365 33.2456C59.6761 27.5634 60.9921 37.7316 65.2577 32.9466C66.7099 31.3231 70.7032 34.0574 68.8427 35.51C66.8914 36.9626 73.7437 35.3391 74.1067 35.2537C76.8748 34.4419 75.6496 38.7997 76.1034 39.0133C78.1001 39.9533 80.6867 39.1842 80.6867 43.7129C80.6867 58.3671 59.6761 61.6569 45.6538 57.5554C40.3898 56.0173 33.719 53.4539 30.9509 49.2243C29.1811 46.4473 30.4517 38.7143 33.5829 39.8251Z" fill="#FFF3AD"/>
<path fill-rule="evenodd" clip-rule="evenodd" d="M67.5723 39.6969C67.1185 39.6115 61.5822 42.9866 61.9906 43.6702C62.4898 44.6529 63.5789 44.3538 64.668 44.6529C65.5756 44.9092 65.3941 47.0881 67.2546 47.0881C69.0244 47.0881 68.3891 45.5501 69.1152 45.5501C70.0681 45.5501 71.6564 46.1482 72.6094 46.4045C73.1086 46.5327 76.9658 45.6782 77.2835 45.3792C77.828 44.8238 77.4196 44.1829 76.9204 43.7129C75.7859 42.5167 74.3792 42.7303 76.5574 41.5768C79.0079 40.295 76.0128 39.3551 74.2431 39.4406C72.564 39.526 71.1119 39.1842 69.569 39.1842C69.0244 39.1842 68.5706 38.9706 67.9807 39.0561C67.7992 39.0561 67.3 39.6542 67.5723 39.6969Z" fill="#EABB36"/>
<path fill-rule="evenodd" clip-rule="evenodd" d="M31.1304 40.8932C30.8127 42.2604 30.8127 42.7731 31.8564 43.9693C32.3102 44.5247 33.6262 45.251 34.4431 45.251C35.5775 45.251 37.0751 48.5407 39.7978 48.5407C41.7945 48.5407 44.3358 48.8825 45.1526 46.6182C46.1963 43.5848 40.297 42.5167 38.3911 41.1068C35.1691 38.6289 33.354 40.5942 31.1304 40.8932Z" fill="#EABB36"/>
<path fill-rule="evenodd" clip-rule="evenodd" d="M42.0664 35.8518C43.337 37.3471 45.2883 39.3124 47.3304 39.9105C51.4599 41.1923 50.1439 35.3391 48.5103 33.6302C47.3304 32.4339 45.1976 33.032 43.8362 33.7156C43.2917 33.972 42.4748 34.271 42.2025 34.741C41.7488 35.4673 42.1572 35.4673 42.0664 35.8518Z" fill="#EABB36"/>
<path d="M38.5557 42.504C39.0697 41.1735 37.6343 39.4608 35.3496 38.6785C33.0649 37.8962 30.7961 38.3406 30.2821 39.6711C29.7681 41.0016 31.2036 42.7144 33.4883 43.4967C35.773 44.279 38.0418 43.8345 38.5557 42.504Z" fill="#ED4E28"/>
<path d="M38.7786 41.9133C39.2927 40.5828 37.8574 38.8698 35.5727 38.0873C33.288 37.3048 31.0191 37.749 30.505 39.0795C29.9909 40.41 31.4262 42.123 33.7109 42.9055C35.9956 43.688 38.2645 43.2438 38.7786 41.9133Z" fill="#F58220"/>
<path d="M49.7297 37.1938C50.7052 36.1793 50.0954 34.1631 48.3675 32.6904C46.6397 31.2178 44.4482 30.8464 43.4727 31.8609C42.4972 32.8754 43.107 34.8916 44.8349 36.3643C46.5627 37.8369 48.7542 38.2083 49.7297 37.1938Z" fill="#ED4E28"/>
<path d="M50.194 36.7444C51.1696 35.7299 50.5597 33.7136 48.8319 32.241C47.1041 30.7683 44.9126 30.3969 43.9371 31.4114C42.9615 32.4259 43.5714 34.4422 45.2992 35.9148C47.027 37.3875 49.2185 37.7589 50.194 36.7444Z" fill="#F58220"/>
<path d="M62.7304 51.1935C63.7059 50.179 63.096 48.1628 61.3682 46.6901C59.6404 45.2175 57.4489 44.8461 56.4734 45.8606C55.4978 46.8751 56.1077 48.8913 57.8355 50.364C59.5633 51.8366 61.7548 52.208 62.7304 51.1935Z" fill="#ED4E28"/>
<path d="M63.1947 50.7441C64.1702 49.7296 63.5604 47.7134 61.8326 46.2407C60.1047 44.768 57.9132 44.3966 56.9377 45.4111C55.9622 46.4256 56.5721 48.4419 58.2999 49.9145C60.0277 51.3872 62.2192 51.7586 63.1947 50.7441Z" fill="#F58220"/>
<path fill-rule="evenodd" clip-rule="evenodd" d="M57.6775 34.4846C56.1346 35.5955 58.6305 37.1335 59.5381 37.3471C60.3095 37.518 60.9448 37.3471 60.9448 36.5354C61.081 33.8865 59.4927 33.1602 57.6775 34.4846Z" fill="#FDB913"/>
<path fill-rule="evenodd" clip-rule="evenodd" d="M57.8603 34.9973C57.2704 35.4246 58.2233 35.98 58.541 36.0654C58.8132 36.1509 59.0401 36.0654 59.0855 35.7663C59.1309 34.7837 58.541 34.4846 57.8603 34.9973Z" fill="#FFF6BA"/>
<path fill-rule="evenodd" clip-rule="evenodd" d="M38.9818 47.6008C41.16 47.6008 42.9298 45.9346 42.9298 43.8839C42.9298 41.8331 41.16 40.1669 38.9818 40.1669C36.8036 40.1669 35.0338 41.8331 35.0338 43.8839C35.0338 45.9346 36.8036 47.6008 38.9818 47.6008Z" fill="#D00209"/>
<path fill-rule="evenodd" clip-rule="evenodd" d="M39.3918 46.02C41.0255 46.02 42.3868 44.7383 42.3868 43.2003C42.3868 41.6622 41.0255 40.3805 39.3918 40.3805C37.7581 40.3805 36.3968 41.6622 36.3968 43.2003C36.3968 44.7811 37.7581 46.02 39.3918 46.02Z" fill="#EE6305"/>
<path d="M40.8598 41.1198C40.4049 40.7866 39.8614 40.7277 39.646 40.9884C39.4305 41.2491 39.6246 41.7306 40.0795 42.0639C40.5344 42.3972 41.0779 42.456 41.2934 42.1953C41.5088 41.9346 41.3147 41.4531 40.8598 41.1198Z" fill="#FDF1DE"/>
<path fill-rule="evenodd" clip-rule="evenodd" d="M68.7954 57.2564C70.9737 57.2564 72.7434 55.5901 72.7434 53.5394C72.7434 51.4887 70.9737 49.8224 68.7954 49.8224C66.6172 49.8224 64.8474 51.4887 64.8474 53.5394C64.8474 55.5901 66.6172 57.2564 68.7954 57.2564Z" fill="#D00209"/>
<path fill-rule="evenodd" clip-rule="evenodd" d="M69.2046 55.6756C70.8383 55.6756 72.1997 54.3939 72.1997 52.8558C72.1997 51.3178 70.8383 50.0361 69.2046 50.0361C67.571 50.0361 66.2096 51.3178 66.2096 52.8558C66.2096 54.3939 67.5256 55.6756 69.2046 55.6756Z" fill="#EE6305"/>
<path d="M70.6688 50.7573C70.2139 50.4241 69.6705 50.3652 69.455 50.6259C69.2395 50.8866 69.4336 51.3682 69.8885 51.7014C70.3435 52.0347 70.8869 52.0935 71.1024 51.8328C71.3179 51.5721 71.1237 51.0906 70.6688 50.7573Z" fill="#FDF1DE"/>
<path d="M77.2341 41.7698C76.7322 40.6119 74.7264 40.2875 72.754 41.0452C70.7815 41.803 69.5894 43.3559 70.0912 44.5138C70.593 45.6717 72.5988 45.9961 74.5713 45.2384C76.5437 44.4806 77.7359 42.9277 77.2341 41.7698Z" fill="#ED4E28"/>
<path d="M77.0153 41.2603C76.5135 40.1024 74.5077 39.778 72.5352 40.5357C70.5628 41.2935 69.3706 42.8464 69.8725 44.0043C70.3743 45.1622 72.3801 45.4866 74.3525 44.7289C76.325 43.9712 77.5172 42.4182 77.0153 41.2603Z" fill="#F58220"/>
<path fill-rule="evenodd" clip-rule="evenodd" d="M68.3435 44.7383C70.5217 44.7383 72.2915 43.0721 72.2915 41.0214C72.2915 38.9706 70.5217 37.3044 68.3435 37.3044C66.1653 37.3044 64.3955 38.9706 64.3955 41.0214C64.3955 43.0294 66.1653 44.7383 68.3435 44.7383Z" fill="#D00209"/>
<path fill-rule="evenodd" clip-rule="evenodd" d="M68.753 43.1576C70.3866 43.1576 71.748 41.8758 71.748 40.3378C71.748 38.7997 70.3866 37.518 68.753 37.518C67.1193 37.518 65.7579 38.7997 65.7579 40.3378C65.7579 41.8758 67.074 43.1576 68.753 43.1576Z" fill="#EE6305"/>
<path d="M70.221 38.2264C69.7661 37.8931 69.2226 37.8343 69.0072 38.095C68.7917 38.3557 68.9858 38.8372 69.4407 39.1705C69.8956 39.5038 70.4391 39.5626 70.6546 39.3019C70.87 39.0412 70.6759 38.5597 70.221 38.2264Z" fill="#FDF1DE"/>
<path fill-rule="evenodd" clip-rule="evenodd" d="M58.3445 44.7386C60.5227 44.7386 62.2925 43.0724 62.2925 41.0216C62.2925 38.9709 60.5227 37.3047 58.3445 37.3047C56.1663 37.3047 54.3965 38.9709 54.3965 41.0216C54.3965 43.0297 56.1663 44.7386 58.3445 44.7386Z" fill="#D00209"/>
<path fill-rule="evenodd" clip-rule="evenodd" d="M58.7539 43.1578C60.3876 43.1578 61.749 41.8761 61.749 40.3381C61.749 38.8 60.3876 37.5183 58.7539 37.5183C57.1203 37.5183 55.7589 38.8 55.7589 40.3381C55.7589 41.8761 57.0749 43.1578 58.7539 43.1578Z" fill="#EE6305"/>
<path d="M60.222 38.2267C59.7671 37.8934 59.2236 37.8346 59.0081 38.0953C58.7927 38.356 58.9868 38.8375 59.4417 39.1708C59.8966 39.504 60.4401 39.5629 60.6556 39.3022C60.871 39.0415 60.6769 38.5599 60.222 38.2267Z" fill="#FDF1DE"/>
<path fill-rule="evenodd" clip-rule="evenodd" d="M58.3445 35.7386C60.5227 35.7386 62.2925 34.0724 62.2925 32.0216C62.2925 29.9709 60.5227 28.3047 58.3445 28.3047C56.1663 28.3047 54.3965 29.9709 54.3965 32.0216C54.3965 34.0297 56.1663 35.7386 58.3445 35.7386Z" fill="#D00209"/>
<path fill-rule="evenodd" clip-rule="evenodd" d="M58.7539 34.1578C60.3876 34.1578 61.749 32.8761 61.749 31.3381C61.749 29.8 60.3876 28.5183 58.7539 28.5183C57.1203 28.5183 55.7589 29.8 55.7589 31.3381C55.7589 32.8761 57.0749 34.1578 58.7539 34.1578Z" fill="#EE6305"/>
<path d="M60.222 29.2267C59.7671 28.8934 59.2236 28.8346 59.0081 29.0953C58.7927 29.356 58.9868 29.8375 59.4417 30.1708C59.8966 30.504 60.4401 30.5629 60.6556 30.3022C60.871 30.0415 60.6769 29.5599 60.222 29.2267Z" fill="#FDF1DE"/>
<path fill-rule="evenodd" clip-rule="evenodd" d="M66.7087 44.2683C65.1658 45.3792 67.6617 46.9172 68.5693 47.1308C69.3407 47.3017 69.9761 47.1308 69.9761 46.3191C70.1122 43.6702 68.5693 42.9439 66.7087 44.2683Z" fill="#FDB913"/>
<path fill-rule="evenodd" clip-rule="evenodd" d="M66.8915 44.781C66.3015 45.2083 67.2545 45.7637 67.5721 45.8491C67.8444 45.9346 68.0713 45.8491 68.1167 45.5501C68.1621 44.5247 67.5721 44.2683 66.8915 44.781Z" fill="#FFF6BA"/>
<path fill-rule="evenodd" clip-rule="evenodd" d="M73.9246 44.9947C74.1969 46.7891 76.8289 45.5074 77.5096 44.8665C78.0541 44.3111 78.1903 43.713 77.4642 43.2857C75.0591 41.9186 73.6523 42.8158 73.9246 44.9947Z" fill="#FDB913"/>
<path fill-rule="evenodd" clip-rule="evenodd" d="M75.104 43.7984C75.1947 44.482 76.1931 44.012 76.42 43.7557C76.6469 43.5421 76.6923 43.3285 76.42 43.1576C75.5124 42.6449 74.9678 42.9867 75.104 43.7984Z" fill="#FFF6BA"/>
<path fill-rule="evenodd" clip-rule="evenodd" d="M38.1205 37.9453C39.6634 39.0561 37.1675 40.5941 36.2599 40.8077C35.4885 40.9786 34.8532 40.8077 34.8532 39.996C34.717 37.3471 36.2599 36.6208 38.1205 37.9453Z" fill="#FDB913"/>
<path fill-rule="evenodd" clip-rule="evenodd" d="M37.9396 38.4579C38.5295 38.8852 37.5766 39.4406 37.2589 39.526C36.9866 39.6115 36.7597 39.526 36.7144 39.227C36.669 38.2016 37.2589 37.9453 37.9396 38.4579Z" fill="#FFFAC0"/>
<path fill-rule="evenodd" clip-rule="evenodd" d="M51.4147 41.534C51.3693 39.6542 51.5055 38.4152 52.05 36.6635C52.4131 35.5955 50.6433 35.5527 50.6433 34.8692C50.6433 34.741 50.1441 34.8692 50.0987 34.8692C49.6449 34.6983 50.4164 34.4419 49.4634 34.3565C48.9188 34.3137 48.5558 33.3311 48.3743 33.6729C48.1474 34.1429 48.3743 34.5701 47.8297 34.6555C47.4667 34.6983 47.8751 35.3818 47.6482 35.5527C47.3759 35.7664 47.6028 35.98 47.7844 36.1509C48.0566 36.4927 47.0583 36.279 47.6936 37.0481C47.8751 37.3044 47.3306 37.1762 47.5121 37.3899L48.0113 37.988C48.6012 38.6716 48.6466 38.4152 49.3273 38.6716C49.6449 38.7997 49.5995 39.1415 49.8264 39.3551C50.008 39.526 50.734 39.7824 50.6886 40.1242C50.6433 40.3805 50.8248 40.8077 50.9155 41.0641C50.3256 40.0387 50.7794 41.1923 50.371 40.7223C49.8718 40.1242 49.8264 39.8251 49.5088 39.3124C49.3726 39.1415 48.4651 38.3298 48.102 38.6288C47.739 38.9279 48.102 38.7143 47.4213 38.4152C47.149 38.287 47.6028 38.8425 46.786 38.4152C46.4684 38.287 46.0146 39.1842 46.5591 39.3124C46.6953 39.3551 47.5121 39.4406 47.0583 39.526C46.6045 39.5688 46.0146 40.0814 46.786 40.2951C47.1944 40.4232 47.5121 40.2951 47.9205 40.3805C48.6466 40.5087 47.6936 40.8077 47.3759 40.8077C47.1037 40.8077 46.6499 40.8505 47.149 41.1068C47.6936 41.4059 47.0129 41.3204 47.2852 41.6622C47.3759 41.7904 47.6482 41.8758 47.7844 42.004C48.3289 42.4312 47.4213 42.773 48.1474 42.8585C49.0096 42.9439 50.1895 41.235 51.1878 41.8331C51.687 42.9439 52.4131 44.012 53.7291 44.9947C53.8198 44.9947 53.956 44.9947 54.0467 44.9947C52.7761 44.012 51.9593 43.0294 51.4601 42.0894V42.1322C52.9122 41.7049 53.1845 42.474 54.2736 42.6021C54.4551 42.6449 54.9089 42.6876 55.0904 42.5594C55.7711 42.1749 54.5459 42.004 54.7274 41.9186C55.0451 41.7904 55.3627 41.9613 55.5896 41.7904C55.8619 41.5768 55.4535 41.3631 55.9073 41.235C56.2249 41.1495 56.1342 41.0641 55.8619 40.765C55.5442 40.466 56.7695 40.3378 56.4518 39.9533C56.3157 39.7824 56.6787 39.4406 56.7241 39.1415C56.7695 38.9279 56.4064 38.9279 56.4972 38.6288C56.7241 37.9025 56.4518 38.1162 55.8165 38.0734C55.4535 38.0307 55.4535 38.0307 55.0451 38.3298C54.7728 38.5434 54.7728 37.9453 54.5459 37.988C53.7744 38.1162 52.64 38.0307 52.64 39.3551C52.5946 39.9105 51.8231 41.2777 51.4147 41.534Z" fill="#A6CE39"/>
<path fill-rule="evenodd" clip-rule="evenodd" d="M48.5115 34.1428C48.7384 35.4673 50.4174 37.1335 50.6897 38.8424C50.7805 39.3551 51.0527 39.996 50.962 40.5514C50.8712 41.1495 51.1435 40.8505 50.8258 40.0814C50.5536 39.4833 50.1452 39.3124 49.8729 38.7143C49.7821 38.5007 49.1468 38.4579 48.9199 38.3725C48.4661 38.2016 49.6006 38.2443 49.7367 38.2443C49.9636 38.2443 48.6476 37.7316 48.4207 37.6462C47.6947 37.4326 48.8291 37.4753 48.9653 37.4753C49.3737 37.4326 48.4661 37.0481 48.2846 36.8344C48.2392 36.749 48.1485 36.279 48.1938 36.1936C48.4207 35.7236 47.8762 35.6382 48.1485 35.1255C48.2392 34.9546 48.5115 34.1001 48.5115 34.1428Z" fill="#82B941"/>
<path fill-rule="evenodd" clip-rule="evenodd" d="M47.0158 38.7997C47.6058 39.0133 47.7419 38.9706 48.3772 39.0561C49.1487 39.1415 49.5117 40.466 50.1016 40.9359C50.6916 41.4486 49.8747 40.9786 49.6478 40.765C49.5571 40.6796 48.6495 40.1242 48.6949 40.1669C49.0579 40.5087 48.831 40.466 48.468 40.2523C48.1957 40.0814 47.9234 40.0814 47.6058 40.0387C47.515 40.0387 46.9251 39.9533 47.1066 39.9533C47.8327 39.996 47.2427 39.3979 47.0158 39.1842C46.9251 39.0988 46.7436 38.9706 46.7889 38.8425C46.7889 38.757 47.152 38.757 47.0158 38.7997Z" fill="#82B941"/>
<path fill-rule="evenodd" clip-rule="evenodd" d="M52.2771 41.5768C52.5947 40.8932 53.4569 40.9359 53.8654 40.4659C54.2284 40.0814 54.5914 39.6542 55.0906 39.4406C55.499 39.2697 55.8167 38.8852 56.0436 38.6715C56.3612 38.4152 55.7713 38.6288 55.6805 38.7143C55.0906 39.0561 55.6352 38.3725 55.5444 38.4152C55.1814 38.6288 54.8637 38.8424 54.5914 39.0561C54.5007 39.1415 53.9561 39.7824 54.0469 39.4406C54.0923 39.2269 54.2284 39.0561 54.2738 38.8424C54.4099 38.1161 54.0469 38.5861 53.82 38.9706C53.7746 39.0561 53.7292 38.6715 53.6838 38.6288C53.6838 38.6288 53.0939 40.5087 53.1393 39.6542C53.1393 39.5687 52.9124 39.0988 53.0032 39.4406C53.1393 40.2096 52.4132 40.6796 52.2771 41.1922C52.2317 41.3631 51.7779 41.7049 51.6418 41.7904C51.5056 41.8758 51.9594 41.7049 52.0048 41.6622C52.0956 41.534 52.3225 41.4913 52.2771 41.5768Z" fill="#82B941"/>
<path d="M59.3259 54.9702C59.4953 53.611 57.7562 52.2998 55.4417 52.0414C53.1271 51.7831 51.1135 52.6756 50.9442 54.0348C50.7749 55.394 52.5139 56.7052 54.8285 56.9636C57.143 57.2219 59.1566 56.3294 59.3259 54.9702Z" fill="#ED4E28"/>
<path d="M59.4077 54.3546C59.5772 52.9954 57.8383 51.6839 55.5237 51.4254C53.2092 51.1669 51.1955 52.0592 51.026 53.4184C50.8565 54.7776 52.5955 56.089 54.91 56.3475C57.2246 56.6061 59.2383 55.7138 59.4077 54.3546Z" fill="#F58220"/>
<path fill-rule="evenodd" clip-rule="evenodd" d="M34.8992 46.2336C36.2152 47.8144 37.5766 49.0107 36.0791 47.5154C35.6707 47.0881 37.3951 44.6529 38.0758 44.9519C38.8926 45.2937 39.5279 46.1909 39.3918 46.6609C38.6203 49.1388 40.0725 46.1055 40.98 45.1656C41.4792 44.6529 41.3431 44.1829 41.5246 44.1829C41.9784 44.0975 42.6591 47.0027 42.296 47.6008C41.5246 48.8398 41.57 48.0708 42.2053 46.4045C42.4322 45.8491 42.6137 44.9092 42.9767 44.8665C43.2036 44.8238 44.8373 46.6182 44.8373 47.3445C44.8373 49.2243 44.9734 48.028 44.7011 46.0627C44.5196 44.9092 44.6104 44.1829 44.928 44.2256C45.4726 44.3538 47.1063 46.2764 45.7449 46.2764C45.4272 46.2764 50.782 44.5247 50.5551 44.9519C50.192 45.5073 49.5567 46.2764 48.5584 47.3017C49.0576 47.6008 51.0543 45.721 51.0089 46.02C50.6458 48.9252 52.7787 45.8491 52.8241 46.5327C53.0509 49.3097 53.5501 53.2403 53.7316 55.8465C53.777 56.4446 53.8224 57.5981 53.2325 57.9826C52.7787 58.2817 52.4156 58.6662 51.8257 59.008C51.5081 59.2216 49.9198 59.9907 50.0105 59.9907C44.4742 59.9052 43.5213 58.239 41.6607 55.3338C40.1178 52.8985 38.2119 51.5314 35.5345 49.6515C33.8101 48.498 32.4033 47.0027 34.8992 46.2336Z" fill="#699B42"/>
<path fill-rule="evenodd" clip-rule="evenodd" d="M34.8954 46.2336C32.8987 47.6435 34.9862 48.2844 35.5307 47.2163C35.7576 46.7463 36.3022 44.9519 37.4367 44.9092C38.1174 44.8665 38.3443 45.0374 38.2081 45.5073C37.4367 47.9853 39.4787 45.8064 40.4317 44.8665C42.2923 42.9866 41.2485 44.9946 40.7494 45.7637C39.9779 47.0026 40.9763 47.7289 41.6116 46.0627C41.9746 45.1655 43.1091 43.8411 43.1091 45.6782C43.1091 47.5581 44.3797 47.6435 44.1074 45.7209C43.7444 43.1148 45.8319 44.0547 45.1512 45.9773C45.1058 46.1482 52.6841 43.7984 49.8252 45.3791C49.0538 45.8064 46.6487 45.9773 47.6017 46.5327C48.1008 46.8317 52.3665 45.1228 50.4152 46.3191C47.1479 48.3698 53.0018 45.7637 52.7295 46.4472C51.6404 48.8398 52.911 52.8131 53.0926 55.4619C53.1379 56.0601 53.1833 57.2136 52.5934 57.5981C52.1396 57.8972 51.7766 58.2817 51.1866 58.6235C50.8236 58.8371 49.2807 59.6061 49.3715 59.6061C43.7898 59.5634 42.8368 57.8972 40.9763 54.992C39.4334 52.5567 37.5274 51.1896 34.85 49.3097C33.3071 48.1989 32.3996 47.0026 34.8954 46.2336Z" fill="#99CC33"/>
<path fill-rule="evenodd" clip-rule="evenodd" d="M34.309 48.028C35.7611 49.8224 37.5763 50.4633 38.983 51.4887C39.5276 51.8732 39.8452 52.3858 40.299 52.7704C40.6621 53.0267 40.889 53.4967 40.5259 52.8558C39.4822 51.0614 37.3948 49.9933 36.2603 48.3698C35.8065 47.6862 36.5779 46.49 36.0334 47.0881C35.7157 47.3872 34.8535 48.1989 34.309 48.028Z" fill="#D1DB39"/>
<path fill-rule="evenodd" clip-rule="evenodd" d="M38.2081 46.789C38.2989 47.7289 39.025 48.498 39.3426 49.0534C40.0233 50.1642 40.6586 51.3177 41.2032 52.4713C41.8385 53.7957 40.8401 51.3177 40.704 50.9759C40.2956 49.7797 39.9779 49.1388 39.7057 47.9426C39.6603 47.7289 39.5695 46.49 39.4788 46.3191C39.025 46.3618 38.6619 46.8745 38.2081 46.789Z" fill="#D1DB39"/>
<path fill-rule="evenodd" clip-rule="evenodd" d="M40.7075 47.1735C40.889 48.1135 41.4789 48.8825 41.7512 49.4806C41.8873 49.737 41.8873 50.036 42.0235 50.2924C42.1142 50.5487 42.205 50.805 42.1596 50.3351C42.0688 49.5661 42.0688 48.7543 42.0235 47.9853L41.8873 46.5327C41.8419 46.3618 41.252 47.259 40.7075 47.1735Z" fill="#D1DB39"/>
<path fill-rule="evenodd" clip-rule="evenodd" d="M47.2853 46.4472C47.1946 46.9172 47.2853 47.3872 47.1946 47.8998L46.5593 51.4032L46.3777 52.514L46.6046 51.7877L48.0568 47.1308C48.3744 46.1909 47.7845 47.1308 47.2853 46.4472Z" fill="#D1DB39"/>
<path fill-rule="evenodd" clip-rule="evenodd" d="M49.3274 47.3017C49.3274 47.6862 49.5089 48.2843 49.3728 48.6261C49.1459 49.3524 49.1005 49.9933 49.0552 50.7623C49.0098 51.9159 49.5997 49.267 49.7812 48.8398C49.9627 48.4552 50.4165 47.9853 50.7342 47.6008C51.188 47.1308 51.1426 47.0881 50.3258 47.259C50.0535 47.3872 49.1913 47.2163 49.3274 47.3017Z" fill="#D1DB39"/>
<path fill-rule="evenodd" clip-rule="evenodd" d="M45.2422 46.0627C44.9699 46.9172 45.6506 47.7717 45.1968 48.5834C44.9245 49.0961 45.333 49.6942 45.4237 50.1642C45.5145 50.6341 45.6052 49.6942 45.6052 49.6088C45.696 48.6689 46.1952 47.4299 46.6036 46.49C46.7397 46.1909 47.012 45.9773 46.1498 46.1909C45.8775 46.2336 45.1968 46.0627 45.2422 46.0627Z" fill="#D1DB39"/>
<path fill-rule="evenodd" clip-rule="evenodd" d="M83.1821 42.5167V45.7637C83.2275 46.1909 83.2729 46.5754 83.2729 47.0027C83.2729 55.8465 71.0205 63.024 55.8638 63.024C40.7524 62.9813 28.5 55.8037 28.5 46.9599V42.5167H30.769C32.0396 49.9933 42.7945 55.8037 55.9091 55.8037C69.0238 55.8037 79.7787 49.9933 81.0493 42.5167H83.1821Z" fill="#CAD5DD"/>
<path fill-rule="evenodd" clip-rule="evenodd" d="M83.1369 42.5167C81.8662 50.6342 70.1584 57.0427 55.9092 57.0427C41.6601 57.0427 29.9069 50.6342 28.6362 42.5167H30.7691C32.0397 49.9933 42.7946 55.8037 55.9092 55.8037C69.0239 55.8037 79.7788 49.9933 81.0494 42.5167H83.1369Z" fill="#F7F8F9"/>
<path fill-rule="evenodd" clip-rule="evenodd" d="M83.1822 46.2336V46.7036C83.1822 46.7891 83.1822 46.8745 83.2275 46.9599C82.3653 55.3338 70.4305 61.9559 55.9091 61.9559C40.7524 61.9559 28.5 54.8211 28.5 45.9773C28.5 45.8064 28.5 45.6355 28.5 45.5073C28.9538 54.0948 41.0247 61.016 55.9091 61.016C70.2944 61.016 82.1384 54.4793 83.1822 46.2336Z" fill="#A2B3BC"/>
<path fill-rule="evenodd" clip-rule="evenodd" d="M72.8375 47.7717C74.6527 48.5834 75.7872 49.2243 77.1939 50.4633C78.0562 51.2323 78.873 49.737 79.5083 50.0788C79.6444 50.1215 79.7352 49.6515 79.7352 49.6515C80.0982 49.3525 80.0075 50.1215 80.5066 49.3525C80.7789 48.9252 81.9134 49.0534 81.6411 48.7116C81.2781 48.3271 80.7789 48.3271 80.9151 47.8144C81.0058 47.5154 80.189 47.5153 80.1436 47.259C80.0528 46.9599 79.7806 47.0454 79.5083 47.0881C79.0545 47.1736 79.6898 46.4045 78.6915 46.6182C78.3738 46.7036 78.7368 46.2336 78.4192 46.3191L77.6477 46.49C76.7402 46.6609 76.967 46.8318 76.4225 47.3017C76.1956 47.5154 75.8326 47.3017 75.5603 47.3872C75.3334 47.4726 74.7435 47.9853 74.4712 47.7717C74.2443 47.6008 73.7451 47.5581 73.5182 47.5581C74.7435 47.5153 73.4275 47.3872 74.1082 47.259C74.925 47.0881 75.1973 47.2163 75.7872 47.1736C76.0141 47.1736 77.1939 46.7463 77.0578 46.3191C76.967 45.8919 76.967 46.2764 77.557 45.8491C77.8293 45.6782 77.0578 45.8491 77.8293 45.3364C78.1015 45.1655 77.4208 44.3538 77.0578 44.7383C76.967 44.8665 76.5133 45.4646 76.6494 45.0801C76.7855 44.6529 76.5586 43.9693 76.0595 44.5247C75.7872 44.8238 75.7418 45.1228 75.5149 45.4219C75.1065 45.9773 75.1973 45.0374 75.3788 44.781C75.5149 44.5674 75.651 44.1829 75.1973 44.4392C74.6527 44.7383 75.0611 44.2256 74.6073 44.3111C74.4258 44.3538 74.2443 44.5247 74.0628 44.6101C73.4275 44.9092 73.4728 43.9693 73.0644 44.5247C72.5653 45.2083 73.7451 46.9599 72.7014 47.5581C71.4308 47.4726 70.0694 47.6008 68.5719 48.3271C68.5265 48.4125 68.4811 48.498 68.4357 48.5834C69.9786 47.9426 71.2039 47.6862 72.3384 47.6862H72.293C72.0661 49.1388 71.2039 49.0107 70.6139 49.8224C70.5232 49.9933 70.2509 50.3351 70.2963 50.5487C70.387 51.275 71.0677 50.3351 71.0677 50.5487C71.0224 50.8478 70.7501 51.0614 70.7955 51.3178C70.8862 51.6595 71.2493 51.4032 71.1585 51.8304C71.1131 52.1295 71.2493 52.1295 71.6123 52.0013C72.0207 51.8732 71.6123 52.984 72.1115 52.8558C72.3384 52.8131 72.5199 53.283 72.7468 53.4539C72.9283 53.5821 73.1098 53.283 73.3367 53.4967C73.9266 54.0093 73.8359 53.7103 74.1989 53.1976C74.3804 52.8985 74.4258 52.9413 74.2897 52.4713C74.1989 52.1722 74.7435 52.3858 74.8342 52.1722C75.0611 51.4886 75.6057 50.5487 74.3804 49.9506C73.8813 49.4806 72.9283 48.2417 72.8375 47.7717Z" fill="#A6CE39"/>
<path fill-rule="evenodd" clip-rule="evenodd" d="M81.1848 48.6262C79.8234 48.1989 77.5091 48.8825 75.7393 48.4125C75.1947 48.2416 74.514 48.1989 74.0149 47.8998C73.4703 47.5581 73.6518 47.9426 74.514 47.9853C75.1947 48.028 75.5578 47.7717 76.2384 47.7717C76.5107 47.7717 76.8284 47.259 77.0099 47.0881C77.3729 46.7463 76.8284 47.729 76.7376 47.8571C76.6469 48.028 77.736 47.1735 77.8721 47.0027C78.3713 46.49 77.8267 47.4299 77.7813 47.5153C77.6452 47.8999 78.4167 47.259 78.6889 47.259C78.7797 47.259 79.2335 47.3872 79.3242 47.4726C79.6419 47.8998 80.0049 47.4299 80.368 47.8998C80.5041 48.028 81.2302 48.6262 81.1848 48.6262Z" fill="#82B941"/>
<path fill-rule="evenodd" clip-rule="evenodd" d="M77.4199 45.251C76.9207 45.6782 76.9207 45.8064 76.5577 46.2764C76.1039 46.8745 74.7425 46.6182 74.0165 46.8745C73.245 47.1736 74.0618 46.6609 74.3795 46.5754C74.5156 46.5327 75.4232 46.02 75.3779 46.02C74.8787 46.1909 75.0602 45.9773 75.4232 45.8064C75.6955 45.6782 75.8316 45.4219 76.0132 45.1656C76.0585 45.0801 76.3762 44.6101 76.2854 44.781C75.9224 45.3792 76.7846 45.1656 77.0569 45.0374C77.193 44.9947 77.3745 44.9092 77.5107 45.0374C77.5561 45.0801 77.3745 45.4219 77.4199 45.251Z" fill="#82B941"/>
<path fill-rule="evenodd" clip-rule="evenodd" d="M72.4301 48.498C72.9292 49.0534 72.5208 49.7797 72.7931 50.3351C73.02 50.805 73.2469 51.3177 73.2469 51.8304C73.2469 52.2576 73.4738 52.6849 73.5646 52.984C73.7007 53.3685 73.7007 52.7703 73.7007 52.6422C73.6553 52.0013 74.0183 52.7703 74.0183 52.6849C73.973 52.3004 73.9276 51.9159 73.8368 51.5741C73.7914 51.4459 73.4284 50.7196 73.7007 50.9332C73.8822 51.0614 73.973 51.2323 74.1999 51.4032C74.8352 51.8304 74.5629 51.3177 74.2452 50.9759C74.1999 50.8905 74.5629 51.0187 74.6537 51.0187C74.6537 51.0187 73.1561 49.6942 73.9276 50.1215C74.0183 50.1642 74.5629 50.1642 74.1999 50.0787C73.4284 49.8651 73.2923 49.0534 72.8385 48.6689C72.7023 48.5407 72.5662 48.028 72.5662 47.8998C72.5662 47.7717 72.5208 48.1989 72.5662 48.2844C72.5208 48.3698 72.4754 48.5834 72.4301 48.498Z" fill="#82B941"/>
<path fill-rule="evenodd" clip-rule="evenodd" d="M66.3463 36.279C66.6186 36.279 66.8455 35.9373 66.8455 35.51C66.8455 35.0828 66.6186 34.741 66.3463 34.741C66.0741 34.741 65.8472 35.0828 65.8472 35.51C65.8018 35.9373 66.0287 36.279 66.3463 36.279Z" fill="#EABB36"/>
<path d="M53.5942 36.4352C53.3435 36.0821 52.9544 35.9128 52.7252 36.057C52.496 36.2012 52.5134 36.6044 52.7641 36.9575C53.0148 37.3106 53.4039 37.48 53.6331 37.3357C53.8623 37.1915 53.8448 36.7883 53.5942 36.4352Z" fill="#EABB36"/>
<path d="M65.1262 36.5424C64.85 36.2066 64.4494 36.0631 64.2314 36.222C64.0135 36.3809 64.0606 36.782 64.3368 37.1178C64.613 37.4536 65.0136 37.5971 65.2316 37.4382C65.4495 37.2793 65.4024 36.8782 65.1262 36.5424Z" fill="#EABB36"/>
<path d="M50.617 43.1966C50.3663 42.8435 49.9773 42.6741 49.7481 42.8184C49.5189 42.9626 49.5363 43.3658 49.787 43.7189C50.0377 44.072 50.4267 44.2414 50.6559 44.0971C50.8851 43.9529 50.8677 43.5497 50.617 43.1966Z" fill="#EABB36"/>
<path d="M66.6272 48.1548C66.2621 47.9054 65.8348 47.8735 65.6729 48.0836C65.511 48.2936 65.6757 48.6662 66.0409 48.9156C66.406 49.165 66.8333 49.1969 66.9952 48.9869C67.1571 48.7768 66.9924 48.4043 66.6272 48.1548Z" fill="#EABB36"/>
<path d="M66.0307 49.3503C65.928 48.9368 65.6271 48.6494 65.3587 48.7085C65.0903 48.7676 64.9559 49.1508 65.0586 49.5643C65.1614 49.9779 65.4622 50.2652 65.7307 50.2061C65.9991 50.147 66.1334 49.7639 66.0307 49.3503Z" fill="#EABB36"/>
<path d="M53.7 33.3854C53.5973 32.9718 53.2964 32.6845 53.028 32.7436C52.7595 32.8027 52.6252 33.1859 52.7279 33.5994C52.8306 34.013 53.1315 34.3003 53.4 34.2412C53.6684 34.1821 53.8027 33.7989 53.7 33.3854Z" fill="#EABB36"/>
<path d="M60.7104 33.4559C61.1587 33.5033 61.5471 33.3326 61.5778 33.0746C61.6085 32.8167 61.27 32.5692 60.8217 32.5218C60.3734 32.4745 59.985 32.6452 59.9543 32.9031C59.9235 33.1611 60.262 33.4086 60.7104 33.4559Z" fill="#EABB36"/>
<path d="M69.0134 36.103C69.4617 36.1503 69.8501 35.9796 69.8808 35.7217C69.9115 35.4637 69.573 35.2162 69.1247 35.1689C68.6764 35.1215 68.288 35.2922 68.2573 35.5502C68.2265 35.8081 68.5651 36.0556 69.0134 36.103Z" fill="#EABB36"/>
<path d="M41 120.832V122.64H36.344V125.504H39.912V127.28H36.344V132H34.104V120.832H41ZM45.1484 124.512C45.4364 124.043 45.8097 123.675 46.2684 123.408C46.7377 123.141 47.271 123.008 47.8684 123.008V125.36H47.2764C46.5724 125.36 46.039 125.525 45.6764 125.856C45.3244 126.187 45.1484 126.763 45.1484 127.584V132H42.9084V123.136H45.1484V124.512ZM58.0651 123.136V132H55.8091V130.88C55.5211 131.264 55.1425 131.568 54.6731 131.792C54.2145 132.005 53.7131 132.112 53.1691 132.112C52.4758 132.112 51.8625 131.968 51.3291 131.68C50.7958 131.381 50.3745 130.949 50.0651 130.384C49.7665 129.808 49.6171 129.125 49.6171 128.336V123.136H51.8571V128.016C51.8571 128.72 52.0331 129.264 52.3851 129.648C52.7371 130.021 53.2171 130.208 53.8251 130.208C54.4438 130.208 54.9291 130.021 55.2811 129.648C55.6331 129.264 55.8091 128.72 55.8091 128.016V123.136H58.0651ZM61.7312 122.08C61.3366 122.08 61.0059 121.957 60.7392 121.712C60.4832 121.456 60.3552 121.141 60.3552 120.768C60.3552 120.395 60.4832 120.085 60.7392 119.84C61.0059 119.584 61.3366 119.456 61.7312 119.456C62.1259 119.456 62.4512 119.584 62.7072 119.84C62.9739 120.085 63.1072 120.395 63.1072 120.768C63.1072 121.141 62.9739 121.456 62.7072 121.712C62.4512 121.957 62.1259 122.08 61.7312 122.08ZM62.8352 123.136V132H60.5952V123.136H62.8352ZM67.9764 124.976V129.264C67.9764 129.563 68.0457 129.781 68.1844 129.92C68.3337 130.048 68.579 130.112 68.9204 130.112H69.9604V132H68.5524C66.6644 132 65.7204 131.083 65.7204 129.248V124.976H64.6644V123.136H65.7204V120.944H67.9764V123.136H69.9604V124.976H67.9764ZM75.2835 132.144C74.5582 132.144 73.9075 132.016 73.3315 131.76C72.7555 131.493 72.2968 131.136 71.9555 130.688C71.6248 130.24 71.4435 129.744 71.4115 129.2H73.6675C73.7102 129.541 73.8755 129.824 74.1635 130.048C74.4622 130.272 74.8302 130.384 75.2675 130.384C75.6942 130.384 76.0248 130.299 76.2595 130.128C76.5048 129.957 76.6275 129.739 76.6275 129.472C76.6275 129.184 76.4782 128.971 76.1795 128.832C75.8915 128.683 75.4275 128.523 74.7875 128.352C74.1262 128.192 73.5822 128.027 73.1555 127.856C72.7395 127.685 72.3768 127.424 72.0675 127.072C71.7688 126.72 71.6195 126.245 71.6195 125.648C71.6195 125.157 71.7582 124.709 72.0355 124.304C72.3235 123.899 72.7288 123.579 73.2515 123.344C73.7848 123.109 74.4088 122.992 75.1235 122.992C76.1795 122.992 77.0222 123.259 77.6515 123.792C78.2808 124.315 78.6275 125.024 78.6915 125.92H76.5475C76.5155 125.568 76.3662 125.291 76.0995 125.088C75.8435 124.875 75.4968 124.768 75.0595 124.768C74.6542 124.768 74.3395 124.843 74.1155 124.992C73.9022 125.141 73.7955 125.349 73.7955 125.616C73.7955 125.915 73.9448 126.144 74.2435 126.304C74.5422 126.453 75.0062 126.608 75.6355 126.768C76.2755 126.928 76.8035 127.093 77.2195 127.264C77.6355 127.435 77.9928 127.701 78.2915 128.064C78.6008 128.416 78.7608 128.885 78.7715 129.472C78.7715 129.984 78.6275 130.443 78.3395 130.848C78.0622 131.253 77.6568 131.573 77.1235 131.808C76.6008 132.032 75.9875 132.144 75.2835 132.144Z" fill="#07143B"/>
<path d="M40.5 164H72.5" stroke="#EA6A12"/>
<rect x="44.5" y="188" width="24" height="24" rx="12" fill="#EA6A12"/>
<path d="M54.75 196.5L58.25 200L54.75 203.5" stroke="white" stroke-width="1.5" stroke-linecap="round" stroke-linejoin="round"/>
<defs>
<linearGradient id="paint0_linear_2_1643" x1="55.8873" y1="25" x2="55.8873" y2="57.0239" gradientUnits="userSpaceOnUse">
<stop stop-color="#F4F4F7"/>
<stop offset="1" stop-color="white"/>
</linearGradient>
</defs>
</svg>
